M48
; DRILL file {KiCad 5.1.5-1.fc31} date Fri 21 Feb 2020 11:33:54 AM WET
; FORMAT={-:-/ absolute / inch / decimal}
; #@! TF.CreationDate,2020-02-21T11:33:54+00:00
; #@! TF.GenerationSoftware,Kicad,Pcbnew,5.1.5-1.fc31
; #@! TF.FileFunction,Plated,1,2,PTH
FMAT,2
INCH
T1C0.0394
%
G90
G05
T1
X5.4898Y-3.4161
X5.4898Y-3.5161
X5.4898Y-3.6161
X5.4898Y-3.7161
X5.4898Y-3.8161
X5.4898Y-3.9161
X5.4898Y-4.0161
X5.4898Y-4.1161
X5.4898Y-4.2161
X5.4898Y-4.3161
X5.5898Y-3.4161
X5.5898Y-3.5161
X5.5898Y-3.6161
X5.5898Y-3.7161
X5.5898Y-3.8161
X5.5898Y-3.9161
X5.5898Y-4.0161
X5.5898Y-4.1161
X5.5898Y-4.2161
X5.5898Y-4.3161
X5.7795Y-3.9957
X5.8795Y-3.9957
T0
M30
