G04 #@! TF.GenerationSoftware,KiCad,Pcbnew,5.1.5-1.fc31*
G04 #@! TF.CreationDate,2020-02-21T11:33:52+00:00*
G04 #@! TF.ProjectId,programmer-adapter,70726f67-7261-46d6-9d65-722d61646170,rev?*
G04 #@! TF.SameCoordinates,Original*
G04 #@! TF.FileFunction,Legend,Bot*
G04 #@! TF.FilePolarity,Positive*
%FSLAX46Y46*%
G04 Gerber Fmt 4.6, Leading zero omitted, Abs format (unit mm)*
G04 Created by KiCad (PCBNEW 5.1.5-1.fc31) date 2020-02-21 11:33:52*
%MOMM*%
%LPD*%
G04 APERTURE LIST*
%ADD10C,0.150000*%
G04 APERTURE END LIST*
D10*
X144397380Y-90590000D02*
X143397380Y-90590000D01*
X143397380Y-90970952D01*
X143445000Y-91066190D01*
X143492619Y-91113809D01*
X143587857Y-91161428D01*
X143730714Y-91161428D01*
X143825952Y-91113809D01*
X143873571Y-91066190D01*
X143921190Y-90970952D01*
X143921190Y-90590000D01*
X144397380Y-91590000D02*
X143730714Y-91590000D01*
X143921190Y-91590000D02*
X143825952Y-91637619D01*
X143778333Y-91685238D01*
X143730714Y-91780476D01*
X143730714Y-91875714D01*
X144397380Y-92351904D02*
X144349761Y-92256666D01*
X144302142Y-92209047D01*
X144206904Y-92161428D01*
X143921190Y-92161428D01*
X143825952Y-92209047D01*
X143778333Y-92256666D01*
X143730714Y-92351904D01*
X143730714Y-92494761D01*
X143778333Y-92590000D01*
X143825952Y-92637619D01*
X143921190Y-92685238D01*
X144206904Y-92685238D01*
X144302142Y-92637619D01*
X144349761Y-92590000D01*
X144397380Y-92494761D01*
X144397380Y-92351904D01*
X143730714Y-93542380D02*
X144540238Y-93542380D01*
X144635476Y-93494761D01*
X144683095Y-93447142D01*
X144730714Y-93351904D01*
X144730714Y-93209047D01*
X144683095Y-93113809D01*
X144349761Y-93542380D02*
X144397380Y-93447142D01*
X144397380Y-93256666D01*
X144349761Y-93161428D01*
X144302142Y-93113809D01*
X144206904Y-93066190D01*
X143921190Y-93066190D01*
X143825952Y-93113809D01*
X143778333Y-93161428D01*
X143730714Y-93256666D01*
X143730714Y-93447142D01*
X143778333Y-93542380D01*
X144397380Y-94018571D02*
X143730714Y-94018571D01*
X143921190Y-94018571D02*
X143825952Y-94066190D01*
X143778333Y-94113809D01*
X143730714Y-94209047D01*
X143730714Y-94304285D01*
X144397380Y-95066190D02*
X143873571Y-95066190D01*
X143778333Y-95018571D01*
X143730714Y-94923333D01*
X143730714Y-94732857D01*
X143778333Y-94637619D01*
X144349761Y-95066190D02*
X144397380Y-94970952D01*
X144397380Y-94732857D01*
X144349761Y-94637619D01*
X144254523Y-94590000D01*
X144159285Y-94590000D01*
X144064047Y-94637619D01*
X144016428Y-94732857D01*
X144016428Y-94970952D01*
X143968809Y-95066190D01*
X144397380Y-95542380D02*
X143730714Y-95542380D01*
X143825952Y-95542380D02*
X143778333Y-95590000D01*
X143730714Y-95685238D01*
X143730714Y-95828095D01*
X143778333Y-95923333D01*
X143873571Y-95970952D01*
X144397380Y-95970952D01*
X143873571Y-95970952D02*
X143778333Y-96018571D01*
X143730714Y-96113809D01*
X143730714Y-96256666D01*
X143778333Y-96351904D01*
X143873571Y-96399523D01*
X144397380Y-96399523D01*
X144397380Y-96875714D02*
X143730714Y-96875714D01*
X143825952Y-96875714D02*
X143778333Y-96923333D01*
X143730714Y-97018571D01*
X143730714Y-97161428D01*
X143778333Y-97256666D01*
X143873571Y-97304285D01*
X144397380Y-97304285D01*
X143873571Y-97304285D02*
X143778333Y-97351904D01*
X143730714Y-97447142D01*
X143730714Y-97590000D01*
X143778333Y-97685238D01*
X143873571Y-97732857D01*
X144397380Y-97732857D01*
X144349761Y-98590000D02*
X144397380Y-98494761D01*
X144397380Y-98304285D01*
X144349761Y-98209047D01*
X144254523Y-98161428D01*
X143873571Y-98161428D01*
X143778333Y-98209047D01*
X143730714Y-98304285D01*
X143730714Y-98494761D01*
X143778333Y-98590000D01*
X143873571Y-98637619D01*
X143968809Y-98637619D01*
X144064047Y-98161428D01*
X144397380Y-99066190D02*
X143730714Y-99066190D01*
X143921190Y-99066190D02*
X143825952Y-99113809D01*
X143778333Y-99161428D01*
X143730714Y-99256666D01*
X143730714Y-99351904D01*
X144111666Y-100399523D02*
X144111666Y-100875714D01*
X144397380Y-100304285D02*
X143397380Y-100637619D01*
X144397380Y-100970952D01*
X144397380Y-101732857D02*
X143397380Y-101732857D01*
X144349761Y-101732857D02*
X144397380Y-101637619D01*
X144397380Y-101447142D01*
X144349761Y-101351904D01*
X144302142Y-101304285D01*
X144206904Y-101256666D01*
X143921190Y-101256666D01*
X143825952Y-101304285D01*
X143778333Y-101351904D01*
X143730714Y-101447142D01*
X143730714Y-101637619D01*
X143778333Y-101732857D01*
X144397380Y-102637619D02*
X143873571Y-102637619D01*
X143778333Y-102590000D01*
X143730714Y-102494761D01*
X143730714Y-102304285D01*
X143778333Y-102209047D01*
X144349761Y-102637619D02*
X144397380Y-102542380D01*
X144397380Y-102304285D01*
X144349761Y-102209047D01*
X144254523Y-102161428D01*
X144159285Y-102161428D01*
X144064047Y-102209047D01*
X144016428Y-102304285D01*
X144016428Y-102542380D01*
X143968809Y-102637619D01*
X143730714Y-103113809D02*
X144730714Y-103113809D01*
X143778333Y-103113809D02*
X143730714Y-103209047D01*
X143730714Y-103399523D01*
X143778333Y-103494761D01*
X143825952Y-103542380D01*
X143921190Y-103590000D01*
X144206904Y-103590000D01*
X144302142Y-103542380D01*
X144349761Y-103494761D01*
X144397380Y-103399523D01*
X144397380Y-103209047D01*
X144349761Y-103113809D01*
X143730714Y-103875714D02*
X143730714Y-104256666D01*
X143397380Y-104018571D02*
X144254523Y-104018571D01*
X144349761Y-104066190D01*
X144397380Y-104161428D01*
X144397380Y-104256666D01*
X144349761Y-104970952D02*
X144397380Y-104875714D01*
X144397380Y-104685238D01*
X144349761Y-104590000D01*
X144254523Y-104542380D01*
X143873571Y-104542380D01*
X143778333Y-104590000D01*
X143730714Y-104685238D01*
X143730714Y-104875714D01*
X143778333Y-104970952D01*
X143873571Y-105018571D01*
X143968809Y-105018571D01*
X144064047Y-104542380D01*
X144397380Y-105447142D02*
X143730714Y-105447142D01*
X143921190Y-105447142D02*
X143825952Y-105494761D01*
X143778333Y-105542380D01*
X143730714Y-105637619D01*
X143730714Y-105732857D01*
X145380714Y-95947142D02*
X146047380Y-96185238D01*
X145380714Y-96423333D01*
X146047380Y-97328095D02*
X146047380Y-96756666D01*
X146047380Y-97042380D02*
X145047380Y-97042380D01*
X145190238Y-96947142D01*
X145285476Y-96851904D01*
X145333095Y-96756666D01*
X145952142Y-97756666D02*
X145999761Y-97804285D01*
X146047380Y-97756666D01*
X145999761Y-97709047D01*
X145952142Y-97756666D01*
X146047380Y-97756666D01*
X145047380Y-98423333D02*
X145047380Y-98518571D01*
X145095000Y-98613809D01*
X145142619Y-98661428D01*
X145237857Y-98709047D01*
X145428333Y-98756666D01*
X145666428Y-98756666D01*
X145856904Y-98709047D01*
X145952142Y-98661428D01*
X145999761Y-98613809D01*
X146047380Y-98518571D01*
X146047380Y-98423333D01*
X145999761Y-98328095D01*
X145952142Y-98280476D01*
X145856904Y-98232857D01*
X145666428Y-98185238D01*
X145428333Y-98185238D01*
X145237857Y-98232857D01*
X145142619Y-98280476D01*
X145095000Y-98328095D01*
X145047380Y-98423333D01*
X145952142Y-99185238D02*
X145999761Y-99232857D01*
X146047380Y-99185238D01*
X145999761Y-99137619D01*
X145952142Y-99185238D01*
X146047380Y-99185238D01*
X145047380Y-99851904D02*
X145047380Y-99947142D01*
X145095000Y-100042380D01*
X145142619Y-100090000D01*
X145237857Y-100137619D01*
X145428333Y-100185238D01*
X145666428Y-100185238D01*
X145856904Y-100137619D01*
X145952142Y-100090000D01*
X145999761Y-100042380D01*
X146047380Y-99947142D01*
X146047380Y-99851904D01*
X145999761Y-99756666D01*
X145952142Y-99709047D01*
X145856904Y-99661428D01*
X145666428Y-99613809D01*
X145428333Y-99613809D01*
X145237857Y-99661428D01*
X145142619Y-99709047D01*
X145095000Y-99756666D01*
X145047380Y-99851904D01*
M02*
