G04 #@! TF.GenerationSoftware,KiCad,Pcbnew,5.1.5-1.fc31*
G04 #@! TF.CreationDate,2020-02-21T11:33:52+00:00*
G04 #@! TF.ProjectId,programmer-adapter,70726f67-7261-46d6-9d65-722d61646170,rev?*
G04 #@! TF.SameCoordinates,Original*
G04 #@! TF.FileFunction,Legend,Top*
G04 #@! TF.FilePolarity,Positive*
%FSLAX46Y46*%
G04 Gerber Fmt 4.6, Leading zero omitted, Abs format (unit mm)*
G04 Created by KiCad (PCBNEW 5.1.5-1.fc31) date 2020-02-21 11:33:52*
%MOMM*%
%LPD*%
G04 APERTURE LIST*
%ADD10C,0.120000*%
G04 APERTURE END LIST*
D10*
X141980000Y-85440000D02*
X143090000Y-85440000D01*
X143090000Y-85440000D02*
X143090000Y-86770000D01*
X129350000Y-85440000D02*
X129350000Y-110960000D01*
X129350000Y-110960000D02*
X137980000Y-110960000D01*
X137980000Y-85440000D02*
X137980000Y-110960000D01*
X129350000Y-85440000D02*
X137980000Y-85440000D01*
X129350000Y-108360000D02*
X137980000Y-108360000D01*
X129350000Y-105820000D02*
X137980000Y-105820000D01*
X129350000Y-103280000D02*
X137980000Y-103280000D01*
X129350000Y-100740000D02*
X137980000Y-100740000D01*
X129350000Y-98200000D02*
X137980000Y-98200000D01*
X129350000Y-95660000D02*
X137980000Y-95660000D01*
X129350000Y-93120000D02*
X137980000Y-93120000D01*
X129350000Y-90580000D02*
X137980000Y-90580000D01*
X129350000Y-88040000D02*
X137980000Y-88040000D01*
X140490000Y-109990000D02*
X140930000Y-109990000D01*
X137980000Y-109990000D02*
X138390000Y-109990000D01*
X140490000Y-109270000D02*
X140930000Y-109270000D01*
X137980000Y-109270000D02*
X138390000Y-109270000D01*
X140490000Y-107450000D02*
X140930000Y-107450000D01*
X137980000Y-107450000D02*
X138390000Y-107450000D01*
X140490000Y-106730000D02*
X140930000Y-106730000D01*
X137980000Y-106730000D02*
X138390000Y-106730000D01*
X140490000Y-104910000D02*
X140930000Y-104910000D01*
X137980000Y-104910000D02*
X138390000Y-104910000D01*
X140490000Y-104190000D02*
X140930000Y-104190000D01*
X137980000Y-104190000D02*
X138390000Y-104190000D01*
X140490000Y-102370000D02*
X140930000Y-102370000D01*
X137980000Y-102370000D02*
X138390000Y-102370000D01*
X140490000Y-101650000D02*
X140930000Y-101650000D01*
X137980000Y-101650000D02*
X138390000Y-101650000D01*
X140490000Y-99830000D02*
X140930000Y-99830000D01*
X137980000Y-99830000D02*
X138390000Y-99830000D01*
X140490000Y-99110000D02*
X140930000Y-99110000D01*
X137980000Y-99110000D02*
X138390000Y-99110000D01*
X140490000Y-97290000D02*
X140930000Y-97290000D01*
X137980000Y-97290000D02*
X138390000Y-97290000D01*
X140490000Y-96570000D02*
X140930000Y-96570000D01*
X137980000Y-96570000D02*
X138390000Y-96570000D01*
X140490000Y-94750000D02*
X140930000Y-94750000D01*
X137980000Y-94750000D02*
X138390000Y-94750000D01*
X140490000Y-94030000D02*
X140930000Y-94030000D01*
X137980000Y-94030000D02*
X138390000Y-94030000D01*
X140490000Y-92210000D02*
X140930000Y-92210000D01*
X137980000Y-92210000D02*
X138390000Y-92210000D01*
X140490000Y-91490000D02*
X140930000Y-91490000D01*
X137980000Y-91490000D02*
X138390000Y-91490000D01*
X140490000Y-89670000D02*
X140930000Y-89670000D01*
X137980000Y-89670000D02*
X138390000Y-89670000D01*
X140490000Y-88950000D02*
X140930000Y-88950000D01*
X137980000Y-88950000D02*
X138390000Y-88950000D01*
X140490000Y-87130000D02*
X140870000Y-87130000D01*
X137980000Y-87130000D02*
X138390000Y-87130000D01*
X140490000Y-86410000D02*
X140870000Y-86410000D01*
X137980000Y-86410000D02*
X138390000Y-86410000D01*
X129350000Y-87921900D02*
X137980000Y-87921900D01*
X129350000Y-87803805D02*
X137980000Y-87803805D01*
X129350000Y-87685710D02*
X137980000Y-87685710D01*
X129350000Y-87567615D02*
X137980000Y-87567615D01*
X129350000Y-87449520D02*
X137980000Y-87449520D01*
X129350000Y-87331425D02*
X137980000Y-87331425D01*
X129350000Y-87213330D02*
X137980000Y-87213330D01*
X129350000Y-87095235D02*
X137980000Y-87095235D01*
X129350000Y-86977140D02*
X137980000Y-86977140D01*
X129350000Y-86859045D02*
X137980000Y-86859045D01*
X129350000Y-86740950D02*
X137980000Y-86740950D01*
X129350000Y-86622855D02*
X137980000Y-86622855D01*
X129350000Y-86504760D02*
X137980000Y-86504760D01*
X129350000Y-86386665D02*
X137980000Y-86386665D01*
X129350000Y-86268570D02*
X137980000Y-86268570D01*
X129350000Y-86150475D02*
X137980000Y-86150475D01*
X129350000Y-86032380D02*
X137980000Y-86032380D01*
X129350000Y-85914285D02*
X137980000Y-85914285D01*
X129350000Y-85796190D02*
X137980000Y-85796190D01*
X129350000Y-85678095D02*
X137980000Y-85678095D01*
X129350000Y-85560000D02*
X137980000Y-85560000D01*
X146415000Y-94160000D02*
X146415000Y-94095000D01*
X149945000Y-94160000D02*
X149945000Y-94095000D01*
X146415000Y-98025000D02*
X146415000Y-97960000D01*
X149945000Y-98025000D02*
X149945000Y-97960000D01*
X151270000Y-97960000D02*
X149945000Y-97960000D01*
X149945000Y-94095000D02*
X146415000Y-94095000D01*
X149945000Y-98025000D02*
X146415000Y-98025000D01*
X150670000Y-100160000D02*
X150670000Y-101490000D01*
X149340000Y-100160000D02*
X150670000Y-100160000D01*
X148070000Y-100160000D02*
X148070000Y-102820000D01*
X148070000Y-102820000D02*
X145470000Y-102820000D01*
X148070000Y-100160000D02*
X145470000Y-100160000D01*
X145470000Y-100160000D02*
X145470000Y-102820000D01*
M02*
