G04 #@! TF.GenerationSoftware,KiCad,Pcbnew,5.1.5-1.fc31*
G04 #@! TF.CreationDate,2020-02-21T11:33:52+00:00*
G04 #@! TF.ProjectId,programmer-adapter,70726f67-7261-46d6-9d65-722d61646170,rev?*
G04 #@! TF.SameCoordinates,Original*
G04 #@! TF.FileFunction,Copper,L2,Bot*
G04 #@! TF.FilePolarity,Positive*
%FSLAX46Y46*%
G04 Gerber Fmt 4.6, Leading zero omitted, Abs format (unit mm)*
G04 Created by KiCad (PCBNEW 5.1.5-1.fc31) date 2020-02-21 11:33:52*
%MOMM*%
%LPD*%
G04 APERTURE LIST*
%ADD10O,1.700000X1.700000*%
%ADD11R,1.700000X1.700000*%
%ADD12C,0.127000*%
G04 APERTURE END LIST*
D10*
X139440000Y-109630000D03*
X141980000Y-109630000D03*
X139440000Y-107090000D03*
X141980000Y-107090000D03*
X139440000Y-104550000D03*
X141980000Y-104550000D03*
X139440000Y-102010000D03*
X141980000Y-102010000D03*
X139440000Y-99470000D03*
X141980000Y-99470000D03*
X139440000Y-96930000D03*
X141980000Y-96930000D03*
X139440000Y-94390000D03*
X141980000Y-94390000D03*
X139440000Y-91850000D03*
X141980000Y-91850000D03*
X139440000Y-89310000D03*
X141980000Y-89310000D03*
X139440000Y-86770000D03*
D11*
X141980000Y-86770000D03*
D10*
X146800000Y-101490000D03*
D11*
X149340000Y-101490000D03*
D12*
G36*
X151484500Y-93999263D02*
G01*
X151484501Y-102329411D01*
X151484500Y-102329421D01*
X151484500Y-102360737D01*
X143050738Y-110794500D01*
X137765500Y-110794500D01*
X137765500Y-109520330D01*
X138326500Y-109520330D01*
X138326500Y-109739670D01*
X138369291Y-109954796D01*
X138453229Y-110157440D01*
X138575088Y-110339815D01*
X138730185Y-110494912D01*
X138912560Y-110616771D01*
X139115204Y-110700709D01*
X139330330Y-110743500D01*
X139549670Y-110743500D01*
X139764796Y-110700709D01*
X139967440Y-110616771D01*
X140149815Y-110494912D01*
X140304912Y-110339815D01*
X140426771Y-110157440D01*
X140510709Y-109954796D01*
X140553500Y-109739670D01*
X140553500Y-109520330D01*
X140866500Y-109520330D01*
X140866500Y-109739670D01*
X140909291Y-109954796D01*
X140993229Y-110157440D01*
X141115088Y-110339815D01*
X141270185Y-110494912D01*
X141452560Y-110616771D01*
X141655204Y-110700709D01*
X141870330Y-110743500D01*
X142089670Y-110743500D01*
X142304796Y-110700709D01*
X142507440Y-110616771D01*
X142689815Y-110494912D01*
X142844912Y-110339815D01*
X142966771Y-110157440D01*
X143050709Y-109954796D01*
X143093500Y-109739670D01*
X143093500Y-109520330D01*
X143050709Y-109305204D01*
X142966771Y-109102560D01*
X142844912Y-108920185D01*
X142689815Y-108765088D01*
X142507440Y-108643229D01*
X142304796Y-108559291D01*
X142089670Y-108516500D01*
X141870330Y-108516500D01*
X141655204Y-108559291D01*
X141452560Y-108643229D01*
X141270185Y-108765088D01*
X141115088Y-108920185D01*
X140993229Y-109102560D01*
X140909291Y-109305204D01*
X140866500Y-109520330D01*
X140553500Y-109520330D01*
X140510709Y-109305204D01*
X140426771Y-109102560D01*
X140304912Y-108920185D01*
X140149815Y-108765088D01*
X139967440Y-108643229D01*
X139764796Y-108559291D01*
X139549670Y-108516500D01*
X139330330Y-108516500D01*
X139115204Y-108559291D01*
X138912560Y-108643229D01*
X138730185Y-108765088D01*
X138575088Y-108920185D01*
X138453229Y-109102560D01*
X138369291Y-109305204D01*
X138326500Y-109520330D01*
X137765500Y-109520330D01*
X137765500Y-106980330D01*
X138326500Y-106980330D01*
X138326500Y-107199670D01*
X138369291Y-107414796D01*
X138453229Y-107617440D01*
X138575088Y-107799815D01*
X138730185Y-107954912D01*
X138912560Y-108076771D01*
X139115204Y-108160709D01*
X139330330Y-108203500D01*
X139549670Y-108203500D01*
X139764796Y-108160709D01*
X139967440Y-108076771D01*
X140149815Y-107954912D01*
X140304912Y-107799815D01*
X140426771Y-107617440D01*
X140510709Y-107414796D01*
X140553500Y-107199670D01*
X140553500Y-106980330D01*
X140866500Y-106980330D01*
X140866500Y-107199670D01*
X140909291Y-107414796D01*
X140993229Y-107617440D01*
X141115088Y-107799815D01*
X141270185Y-107954912D01*
X141452560Y-108076771D01*
X141655204Y-108160709D01*
X141870330Y-108203500D01*
X142089670Y-108203500D01*
X142304796Y-108160709D01*
X142507440Y-108076771D01*
X142689815Y-107954912D01*
X142844912Y-107799815D01*
X142966771Y-107617440D01*
X143050709Y-107414796D01*
X143093500Y-107199670D01*
X143093500Y-106980330D01*
X143050709Y-106765204D01*
X142966771Y-106562560D01*
X142844912Y-106380185D01*
X142689815Y-106225088D01*
X142507440Y-106103229D01*
X142304796Y-106019291D01*
X142089670Y-105976500D01*
X141870330Y-105976500D01*
X141655204Y-106019291D01*
X141452560Y-106103229D01*
X141270185Y-106225088D01*
X141115088Y-106380185D01*
X140993229Y-106562560D01*
X140909291Y-106765204D01*
X140866500Y-106980330D01*
X140553500Y-106980330D01*
X140510709Y-106765204D01*
X140426771Y-106562560D01*
X140304912Y-106380185D01*
X140149815Y-106225088D01*
X139967440Y-106103229D01*
X139764796Y-106019291D01*
X139549670Y-105976500D01*
X139330330Y-105976500D01*
X139115204Y-106019291D01*
X138912560Y-106103229D01*
X138730185Y-106225088D01*
X138575088Y-106380185D01*
X138453229Y-106562560D01*
X138369291Y-106765204D01*
X138326500Y-106980330D01*
X137765500Y-106980330D01*
X137765500Y-104440330D01*
X138326500Y-104440330D01*
X138326500Y-104659670D01*
X138369291Y-104874796D01*
X138453229Y-105077440D01*
X138575088Y-105259815D01*
X138730185Y-105414912D01*
X138912560Y-105536771D01*
X139115204Y-105620709D01*
X139330330Y-105663500D01*
X139549670Y-105663500D01*
X139764796Y-105620709D01*
X139967440Y-105536771D01*
X140149815Y-105414912D01*
X140304912Y-105259815D01*
X140426771Y-105077440D01*
X140510709Y-104874796D01*
X140553500Y-104659670D01*
X140553500Y-104440330D01*
X140866500Y-104440330D01*
X140866500Y-104659670D01*
X140909291Y-104874796D01*
X140993229Y-105077440D01*
X141115088Y-105259815D01*
X141270185Y-105414912D01*
X141452560Y-105536771D01*
X141655204Y-105620709D01*
X141870330Y-105663500D01*
X142089670Y-105663500D01*
X142304796Y-105620709D01*
X142507440Y-105536771D01*
X142689815Y-105414912D01*
X142844912Y-105259815D01*
X142966771Y-105077440D01*
X143050709Y-104874796D01*
X143093500Y-104659670D01*
X143093500Y-104440330D01*
X143050709Y-104225204D01*
X142966771Y-104022560D01*
X142844912Y-103840185D01*
X142689815Y-103685088D01*
X142507440Y-103563229D01*
X142304796Y-103479291D01*
X142089670Y-103436500D01*
X141870330Y-103436500D01*
X141655204Y-103479291D01*
X141452560Y-103563229D01*
X141270185Y-103685088D01*
X141115088Y-103840185D01*
X140993229Y-104022560D01*
X140909291Y-104225204D01*
X140866500Y-104440330D01*
X140553500Y-104440330D01*
X140510709Y-104225204D01*
X140426771Y-104022560D01*
X140304912Y-103840185D01*
X140149815Y-103685088D01*
X139967440Y-103563229D01*
X139764796Y-103479291D01*
X139549670Y-103436500D01*
X139330330Y-103436500D01*
X139115204Y-103479291D01*
X138912560Y-103563229D01*
X138730185Y-103685088D01*
X138575088Y-103840185D01*
X138453229Y-104022560D01*
X138369291Y-104225204D01*
X138326500Y-104440330D01*
X137765500Y-104440330D01*
X137765500Y-101900330D01*
X138326500Y-101900330D01*
X138326500Y-102119670D01*
X138369291Y-102334796D01*
X138453229Y-102537440D01*
X138575088Y-102719815D01*
X138730185Y-102874912D01*
X138912560Y-102996771D01*
X139115204Y-103080709D01*
X139330330Y-103123500D01*
X139549670Y-103123500D01*
X139764796Y-103080709D01*
X139967440Y-102996771D01*
X140149815Y-102874912D01*
X140304912Y-102719815D01*
X140426771Y-102537440D01*
X140510709Y-102334796D01*
X140553500Y-102119670D01*
X140553500Y-101900330D01*
X140866500Y-101900330D01*
X140866500Y-102119670D01*
X140909291Y-102334796D01*
X140993229Y-102537440D01*
X141115088Y-102719815D01*
X141270185Y-102874912D01*
X141452560Y-102996771D01*
X141655204Y-103080709D01*
X141870330Y-103123500D01*
X142089670Y-103123500D01*
X142304796Y-103080709D01*
X142507440Y-102996771D01*
X142689815Y-102874912D01*
X142844912Y-102719815D01*
X142966771Y-102537440D01*
X143050709Y-102334796D01*
X143093500Y-102119670D01*
X143093500Y-101900330D01*
X143050709Y-101685204D01*
X142966771Y-101482560D01*
X142898464Y-101380330D01*
X145686500Y-101380330D01*
X145686500Y-101599670D01*
X145729291Y-101814796D01*
X145813229Y-102017440D01*
X145935088Y-102199815D01*
X146090185Y-102354912D01*
X146272560Y-102476771D01*
X146475204Y-102560709D01*
X146690330Y-102603500D01*
X146909670Y-102603500D01*
X147124796Y-102560709D01*
X147327440Y-102476771D01*
X147509815Y-102354912D01*
X147524727Y-102340000D01*
X148225225Y-102340000D01*
X148230313Y-102391655D01*
X148245380Y-102441325D01*
X148269848Y-102487101D01*
X148302776Y-102527224D01*
X148342899Y-102560152D01*
X148388675Y-102584620D01*
X148438345Y-102599687D01*
X148490000Y-102604775D01*
X149237625Y-102603500D01*
X149303500Y-102537625D01*
X149303500Y-101526500D01*
X149376500Y-101526500D01*
X149376500Y-102537625D01*
X149442375Y-102603500D01*
X150190000Y-102604775D01*
X150241655Y-102599687D01*
X150291325Y-102584620D01*
X150337101Y-102560152D01*
X150377224Y-102527224D01*
X150410152Y-102487101D01*
X150434620Y-102441325D01*
X150449687Y-102391655D01*
X150454775Y-102340000D01*
X150453500Y-101592375D01*
X150387625Y-101526500D01*
X149376500Y-101526500D01*
X149303500Y-101526500D01*
X148292375Y-101526500D01*
X148226500Y-101592375D01*
X148225225Y-102340000D01*
X147524727Y-102340000D01*
X147664912Y-102199815D01*
X147786771Y-102017440D01*
X147870709Y-101814796D01*
X147913500Y-101599670D01*
X147913500Y-101380330D01*
X147870709Y-101165204D01*
X147786771Y-100962560D01*
X147664912Y-100780185D01*
X147524727Y-100640000D01*
X148225225Y-100640000D01*
X148226500Y-101387625D01*
X148292375Y-101453500D01*
X149303500Y-101453500D01*
X149303500Y-100442375D01*
X149376500Y-100442375D01*
X149376500Y-101453500D01*
X150387625Y-101453500D01*
X150453500Y-101387625D01*
X150454775Y-100640000D01*
X150449687Y-100588345D01*
X150434620Y-100538675D01*
X150410152Y-100492899D01*
X150377224Y-100452776D01*
X150337101Y-100419848D01*
X150291325Y-100395380D01*
X150241655Y-100380313D01*
X150190000Y-100375225D01*
X149442375Y-100376500D01*
X149376500Y-100442375D01*
X149303500Y-100442375D01*
X149237625Y-100376500D01*
X148490000Y-100375225D01*
X148438345Y-100380313D01*
X148388675Y-100395380D01*
X148342899Y-100419848D01*
X148302776Y-100452776D01*
X148269848Y-100492899D01*
X148245380Y-100538675D01*
X148230313Y-100588345D01*
X148225225Y-100640000D01*
X147524727Y-100640000D01*
X147509815Y-100625088D01*
X147327440Y-100503229D01*
X147124796Y-100419291D01*
X146909670Y-100376500D01*
X146690330Y-100376500D01*
X146475204Y-100419291D01*
X146272560Y-100503229D01*
X146090185Y-100625088D01*
X145935088Y-100780185D01*
X145813229Y-100962560D01*
X145729291Y-101165204D01*
X145686500Y-101380330D01*
X142898464Y-101380330D01*
X142844912Y-101300185D01*
X142689815Y-101145088D01*
X142507440Y-101023229D01*
X142304796Y-100939291D01*
X142089670Y-100896500D01*
X141870330Y-100896500D01*
X141655204Y-100939291D01*
X141452560Y-101023229D01*
X141270185Y-101145088D01*
X141115088Y-101300185D01*
X140993229Y-101482560D01*
X140909291Y-101685204D01*
X140866500Y-101900330D01*
X140553500Y-101900330D01*
X140510709Y-101685204D01*
X140426771Y-101482560D01*
X140304912Y-101300185D01*
X140149815Y-101145088D01*
X139967440Y-101023229D01*
X139764796Y-100939291D01*
X139549670Y-100896500D01*
X139330330Y-100896500D01*
X139115204Y-100939291D01*
X138912560Y-101023229D01*
X138730185Y-101145088D01*
X138575088Y-101300185D01*
X138453229Y-101482560D01*
X138369291Y-101685204D01*
X138326500Y-101900330D01*
X137765500Y-101900330D01*
X137765500Y-99360330D01*
X138326500Y-99360330D01*
X138326500Y-99579670D01*
X138369291Y-99794796D01*
X138453229Y-99997440D01*
X138575088Y-100179815D01*
X138730185Y-100334912D01*
X138912560Y-100456771D01*
X139115204Y-100540709D01*
X139330330Y-100583500D01*
X139549670Y-100583500D01*
X139764796Y-100540709D01*
X139967440Y-100456771D01*
X140149815Y-100334912D01*
X140304912Y-100179815D01*
X140426771Y-99997440D01*
X140510709Y-99794796D01*
X140553500Y-99579670D01*
X140553500Y-99360330D01*
X140866500Y-99360330D01*
X140866500Y-99579670D01*
X140909291Y-99794796D01*
X140993229Y-99997440D01*
X141115088Y-100179815D01*
X141270185Y-100334912D01*
X141452560Y-100456771D01*
X141655204Y-100540709D01*
X141870330Y-100583500D01*
X142089670Y-100583500D01*
X142304796Y-100540709D01*
X142507440Y-100456771D01*
X142689815Y-100334912D01*
X142844912Y-100179815D01*
X142966771Y-99997440D01*
X143050709Y-99794796D01*
X143093500Y-99579670D01*
X143093500Y-99360330D01*
X143050709Y-99145204D01*
X142966771Y-98942560D01*
X142844912Y-98760185D01*
X142689815Y-98605088D01*
X142507440Y-98483229D01*
X142304796Y-98399291D01*
X142089670Y-98356500D01*
X141870330Y-98356500D01*
X141655204Y-98399291D01*
X141452560Y-98483229D01*
X141270185Y-98605088D01*
X141115088Y-98760185D01*
X140993229Y-98942560D01*
X140909291Y-99145204D01*
X140866500Y-99360330D01*
X140553500Y-99360330D01*
X140510709Y-99145204D01*
X140426771Y-98942560D01*
X140304912Y-98760185D01*
X140149815Y-98605088D01*
X139967440Y-98483229D01*
X139764796Y-98399291D01*
X139549670Y-98356500D01*
X139330330Y-98356500D01*
X139115204Y-98399291D01*
X138912560Y-98483229D01*
X138730185Y-98605088D01*
X138575088Y-98760185D01*
X138453229Y-98942560D01*
X138369291Y-99145204D01*
X138326500Y-99360330D01*
X137765500Y-99360330D01*
X137765500Y-96820330D01*
X138326500Y-96820330D01*
X138326500Y-97039670D01*
X138369291Y-97254796D01*
X138453229Y-97457440D01*
X138575088Y-97639815D01*
X138730185Y-97794912D01*
X138912560Y-97916771D01*
X139115204Y-98000709D01*
X139330330Y-98043500D01*
X139549670Y-98043500D01*
X139764796Y-98000709D01*
X139967440Y-97916771D01*
X140149815Y-97794912D01*
X140304912Y-97639815D01*
X140426771Y-97457440D01*
X140510709Y-97254796D01*
X140553500Y-97039670D01*
X140553500Y-96820330D01*
X140866500Y-96820330D01*
X140866500Y-97039670D01*
X140909291Y-97254796D01*
X140993229Y-97457440D01*
X141115088Y-97639815D01*
X141270185Y-97794912D01*
X141452560Y-97916771D01*
X141655204Y-98000709D01*
X141870330Y-98043500D01*
X142089670Y-98043500D01*
X142304796Y-98000709D01*
X142507440Y-97916771D01*
X142689815Y-97794912D01*
X142844912Y-97639815D01*
X142966771Y-97457440D01*
X143050709Y-97254796D01*
X143093500Y-97039670D01*
X143093500Y-96820330D01*
X143050709Y-96605204D01*
X142966771Y-96402560D01*
X142844912Y-96220185D01*
X142689815Y-96065088D01*
X142507440Y-95943229D01*
X142304796Y-95859291D01*
X142089670Y-95816500D01*
X141870330Y-95816500D01*
X141655204Y-95859291D01*
X141452560Y-95943229D01*
X141270185Y-96065088D01*
X141115088Y-96220185D01*
X140993229Y-96402560D01*
X140909291Y-96605204D01*
X140866500Y-96820330D01*
X140553500Y-96820330D01*
X140510709Y-96605204D01*
X140426771Y-96402560D01*
X140304912Y-96220185D01*
X140149815Y-96065088D01*
X139967440Y-95943229D01*
X139764796Y-95859291D01*
X139549670Y-95816500D01*
X139330330Y-95816500D01*
X139115204Y-95859291D01*
X138912560Y-95943229D01*
X138730185Y-96065088D01*
X138575088Y-96220185D01*
X138453229Y-96402560D01*
X138369291Y-96605204D01*
X138326500Y-96820330D01*
X137765500Y-96820330D01*
X137765500Y-94280330D01*
X138326500Y-94280330D01*
X138326500Y-94499670D01*
X138369291Y-94714796D01*
X138453229Y-94917440D01*
X138575088Y-95099815D01*
X138730185Y-95254912D01*
X138912560Y-95376771D01*
X139115204Y-95460709D01*
X139330330Y-95503500D01*
X139549670Y-95503500D01*
X139764796Y-95460709D01*
X139967440Y-95376771D01*
X140149815Y-95254912D01*
X140304912Y-95099815D01*
X140426771Y-94917440D01*
X140510709Y-94714796D01*
X140553500Y-94499670D01*
X140553500Y-94280330D01*
X140866500Y-94280330D01*
X140866500Y-94499670D01*
X140909291Y-94714796D01*
X140993229Y-94917440D01*
X141115088Y-95099815D01*
X141270185Y-95254912D01*
X141452560Y-95376771D01*
X141655204Y-95460709D01*
X141870330Y-95503500D01*
X142089670Y-95503500D01*
X142304796Y-95460709D01*
X142507440Y-95376771D01*
X142689815Y-95254912D01*
X142844912Y-95099815D01*
X142966771Y-94917440D01*
X143050709Y-94714796D01*
X143093500Y-94499670D01*
X143093500Y-94280330D01*
X143050709Y-94065204D01*
X142966771Y-93862560D01*
X142844912Y-93680185D01*
X142689815Y-93525088D01*
X142507440Y-93403229D01*
X142304796Y-93319291D01*
X142089670Y-93276500D01*
X141870330Y-93276500D01*
X141655204Y-93319291D01*
X141452560Y-93403229D01*
X141270185Y-93525088D01*
X141115088Y-93680185D01*
X140993229Y-93862560D01*
X140909291Y-94065204D01*
X140866500Y-94280330D01*
X140553500Y-94280330D01*
X140510709Y-94065204D01*
X140426771Y-93862560D01*
X140304912Y-93680185D01*
X140149815Y-93525088D01*
X139967440Y-93403229D01*
X139764796Y-93319291D01*
X139549670Y-93276500D01*
X139330330Y-93276500D01*
X139115204Y-93319291D01*
X138912560Y-93403229D01*
X138730185Y-93525088D01*
X138575088Y-93680185D01*
X138453229Y-93862560D01*
X138369291Y-94065204D01*
X138326500Y-94280330D01*
X137765500Y-94280330D01*
X137765500Y-91740330D01*
X138326500Y-91740330D01*
X138326500Y-91959670D01*
X138369291Y-92174796D01*
X138453229Y-92377440D01*
X138575088Y-92559815D01*
X138730185Y-92714912D01*
X138912560Y-92836771D01*
X139115204Y-92920709D01*
X139330330Y-92963500D01*
X139549670Y-92963500D01*
X139764796Y-92920709D01*
X139967440Y-92836771D01*
X140149815Y-92714912D01*
X140304912Y-92559815D01*
X140426771Y-92377440D01*
X140510709Y-92174796D01*
X140553500Y-91959670D01*
X140553500Y-91740330D01*
X140866500Y-91740330D01*
X140866500Y-91959670D01*
X140909291Y-92174796D01*
X140993229Y-92377440D01*
X141115088Y-92559815D01*
X141270185Y-92714912D01*
X141452560Y-92836771D01*
X141655204Y-92920709D01*
X141870330Y-92963500D01*
X142089670Y-92963500D01*
X142304796Y-92920709D01*
X142507440Y-92836771D01*
X142689815Y-92714912D01*
X142844912Y-92559815D01*
X142966771Y-92377440D01*
X143050709Y-92174796D01*
X143093500Y-91959670D01*
X143093500Y-91740330D01*
X143050709Y-91525204D01*
X142966771Y-91322560D01*
X142844912Y-91140185D01*
X142689815Y-90985088D01*
X142507440Y-90863229D01*
X142304796Y-90779291D01*
X142089670Y-90736500D01*
X141870330Y-90736500D01*
X141655204Y-90779291D01*
X141452560Y-90863229D01*
X141270185Y-90985088D01*
X141115088Y-91140185D01*
X140993229Y-91322560D01*
X140909291Y-91525204D01*
X140866500Y-91740330D01*
X140553500Y-91740330D01*
X140510709Y-91525204D01*
X140426771Y-91322560D01*
X140304912Y-91140185D01*
X140149815Y-90985088D01*
X139967440Y-90863229D01*
X139764796Y-90779291D01*
X139549670Y-90736500D01*
X139330330Y-90736500D01*
X139115204Y-90779291D01*
X138912560Y-90863229D01*
X138730185Y-90985088D01*
X138575088Y-91140185D01*
X138453229Y-91322560D01*
X138369291Y-91525204D01*
X138326500Y-91740330D01*
X137765500Y-91740330D01*
X137765500Y-89200330D01*
X138326500Y-89200330D01*
X138326500Y-89419670D01*
X138369291Y-89634796D01*
X138453229Y-89837440D01*
X138575088Y-90019815D01*
X138730185Y-90174912D01*
X138912560Y-90296771D01*
X139115204Y-90380709D01*
X139330330Y-90423500D01*
X139549670Y-90423500D01*
X139764796Y-90380709D01*
X139967440Y-90296771D01*
X140149815Y-90174912D01*
X140304912Y-90019815D01*
X140426771Y-89837440D01*
X140510709Y-89634796D01*
X140553500Y-89419670D01*
X140553500Y-89200330D01*
X140866500Y-89200330D01*
X140866500Y-89419670D01*
X140909291Y-89634796D01*
X140993229Y-89837440D01*
X141115088Y-90019815D01*
X141270185Y-90174912D01*
X141452560Y-90296771D01*
X141655204Y-90380709D01*
X141870330Y-90423500D01*
X142089670Y-90423500D01*
X142304796Y-90380709D01*
X142507440Y-90296771D01*
X142689815Y-90174912D01*
X142844912Y-90019815D01*
X142966771Y-89837440D01*
X143050709Y-89634796D01*
X143093500Y-89419670D01*
X143093500Y-89200330D01*
X143050709Y-88985204D01*
X142966771Y-88782560D01*
X142844912Y-88600185D01*
X142689815Y-88445088D01*
X142507440Y-88323229D01*
X142304796Y-88239291D01*
X142089670Y-88196500D01*
X141870330Y-88196500D01*
X141655204Y-88239291D01*
X141452560Y-88323229D01*
X141270185Y-88445088D01*
X141115088Y-88600185D01*
X140993229Y-88782560D01*
X140909291Y-88985204D01*
X140866500Y-89200330D01*
X140553500Y-89200330D01*
X140510709Y-88985204D01*
X140426771Y-88782560D01*
X140304912Y-88600185D01*
X140149815Y-88445088D01*
X139967440Y-88323229D01*
X139764796Y-88239291D01*
X139549670Y-88196500D01*
X139330330Y-88196500D01*
X139115204Y-88239291D01*
X138912560Y-88323229D01*
X138730185Y-88445088D01*
X138575088Y-88600185D01*
X138453229Y-88782560D01*
X138369291Y-88985204D01*
X138326500Y-89200330D01*
X137765500Y-89200330D01*
X137765500Y-86660330D01*
X138326500Y-86660330D01*
X138326500Y-86879670D01*
X138369291Y-87094796D01*
X138453229Y-87297440D01*
X138575088Y-87479815D01*
X138730185Y-87634912D01*
X138912560Y-87756771D01*
X139115204Y-87840709D01*
X139330330Y-87883500D01*
X139549670Y-87883500D01*
X139764796Y-87840709D01*
X139967440Y-87756771D01*
X140149815Y-87634912D01*
X140164727Y-87620000D01*
X140865225Y-87620000D01*
X140870313Y-87671655D01*
X140885380Y-87721325D01*
X140909848Y-87767101D01*
X140942776Y-87807224D01*
X140982899Y-87840152D01*
X141028675Y-87864620D01*
X141078345Y-87879687D01*
X141130000Y-87884775D01*
X141877625Y-87883500D01*
X141943500Y-87817625D01*
X141943500Y-86806500D01*
X142016500Y-86806500D01*
X142016500Y-87817625D01*
X142082375Y-87883500D01*
X142830000Y-87884775D01*
X142881655Y-87879687D01*
X142931325Y-87864620D01*
X142977101Y-87840152D01*
X143017224Y-87807224D01*
X143050152Y-87767101D01*
X143074620Y-87721325D01*
X143089687Y-87671655D01*
X143094775Y-87620000D01*
X143093500Y-86872375D01*
X143027625Y-86806500D01*
X142016500Y-86806500D01*
X141943500Y-86806500D01*
X140932375Y-86806500D01*
X140866500Y-86872375D01*
X140865225Y-87620000D01*
X140164727Y-87620000D01*
X140304912Y-87479815D01*
X140426771Y-87297440D01*
X140510709Y-87094796D01*
X140553500Y-86879670D01*
X140553500Y-86660330D01*
X140510709Y-86445204D01*
X140426771Y-86242560D01*
X140304912Y-86060185D01*
X140164727Y-85920000D01*
X140865225Y-85920000D01*
X140866500Y-86667625D01*
X140932375Y-86733500D01*
X141943500Y-86733500D01*
X141943500Y-85722375D01*
X142016500Y-85722375D01*
X142016500Y-86733500D01*
X143027625Y-86733500D01*
X143093500Y-86667625D01*
X143094775Y-85920000D01*
X143089687Y-85868345D01*
X143074620Y-85818675D01*
X143050152Y-85772899D01*
X143017224Y-85732776D01*
X142977101Y-85699848D01*
X142931325Y-85675380D01*
X142881655Y-85660313D01*
X142830000Y-85655225D01*
X142082375Y-85656500D01*
X142016500Y-85722375D01*
X141943500Y-85722375D01*
X141877625Y-85656500D01*
X141130000Y-85655225D01*
X141078345Y-85660313D01*
X141028675Y-85675380D01*
X140982899Y-85699848D01*
X140942776Y-85732776D01*
X140909848Y-85772899D01*
X140885380Y-85818675D01*
X140870313Y-85868345D01*
X140865225Y-85920000D01*
X140164727Y-85920000D01*
X140149815Y-85905088D01*
X139967440Y-85783229D01*
X139764796Y-85699291D01*
X139549670Y-85656500D01*
X139330330Y-85656500D01*
X139115204Y-85699291D01*
X138912560Y-85783229D01*
X138730185Y-85905088D01*
X138575088Y-86060185D01*
X138453229Y-86242560D01*
X138369291Y-86445204D01*
X138326500Y-86660330D01*
X137765500Y-86660330D01*
X137765500Y-85575500D01*
X143060738Y-85575500D01*
X151484500Y-93999263D01*
G37*
X151484500Y-93999263D02*
X151484501Y-102329411D01*
X151484500Y-102329421D01*
X151484500Y-102360737D01*
X143050738Y-110794500D01*
X137765500Y-110794500D01*
X137765500Y-109520330D01*
X138326500Y-109520330D01*
X138326500Y-109739670D01*
X138369291Y-109954796D01*
X138453229Y-110157440D01*
X138575088Y-110339815D01*
X138730185Y-110494912D01*
X138912560Y-110616771D01*
X139115204Y-110700709D01*
X139330330Y-110743500D01*
X139549670Y-110743500D01*
X139764796Y-110700709D01*
X139967440Y-110616771D01*
X140149815Y-110494912D01*
X140304912Y-110339815D01*
X140426771Y-110157440D01*
X140510709Y-109954796D01*
X140553500Y-109739670D01*
X140553500Y-109520330D01*
X140866500Y-109520330D01*
X140866500Y-109739670D01*
X140909291Y-109954796D01*
X140993229Y-110157440D01*
X141115088Y-110339815D01*
X141270185Y-110494912D01*
X141452560Y-110616771D01*
X141655204Y-110700709D01*
X141870330Y-110743500D01*
X142089670Y-110743500D01*
X142304796Y-110700709D01*
X142507440Y-110616771D01*
X142689815Y-110494912D01*
X142844912Y-110339815D01*
X142966771Y-110157440D01*
X143050709Y-109954796D01*
X143093500Y-109739670D01*
X143093500Y-109520330D01*
X143050709Y-109305204D01*
X142966771Y-109102560D01*
X142844912Y-108920185D01*
X142689815Y-108765088D01*
X142507440Y-108643229D01*
X142304796Y-108559291D01*
X142089670Y-108516500D01*
X141870330Y-108516500D01*
X141655204Y-108559291D01*
X141452560Y-108643229D01*
X141270185Y-108765088D01*
X141115088Y-108920185D01*
X140993229Y-109102560D01*
X140909291Y-109305204D01*
X140866500Y-109520330D01*
X140553500Y-109520330D01*
X140510709Y-109305204D01*
X140426771Y-109102560D01*
X140304912Y-108920185D01*
X140149815Y-108765088D01*
X139967440Y-108643229D01*
X139764796Y-108559291D01*
X139549670Y-108516500D01*
X139330330Y-108516500D01*
X139115204Y-108559291D01*
X138912560Y-108643229D01*
X138730185Y-108765088D01*
X138575088Y-108920185D01*
X138453229Y-109102560D01*
X138369291Y-109305204D01*
X138326500Y-109520330D01*
X137765500Y-109520330D01*
X137765500Y-106980330D01*
X138326500Y-106980330D01*
X138326500Y-107199670D01*
X138369291Y-107414796D01*
X138453229Y-107617440D01*
X138575088Y-107799815D01*
X138730185Y-107954912D01*
X138912560Y-108076771D01*
X139115204Y-108160709D01*
X139330330Y-108203500D01*
X139549670Y-108203500D01*
X139764796Y-108160709D01*
X139967440Y-108076771D01*
X140149815Y-107954912D01*
X140304912Y-107799815D01*
X140426771Y-107617440D01*
X140510709Y-107414796D01*
X140553500Y-107199670D01*
X140553500Y-106980330D01*
X140866500Y-106980330D01*
X140866500Y-107199670D01*
X140909291Y-107414796D01*
X140993229Y-107617440D01*
X141115088Y-107799815D01*
X141270185Y-107954912D01*
X141452560Y-108076771D01*
X141655204Y-108160709D01*
X141870330Y-108203500D01*
X142089670Y-108203500D01*
X142304796Y-108160709D01*
X142507440Y-108076771D01*
X142689815Y-107954912D01*
X142844912Y-107799815D01*
X142966771Y-107617440D01*
X143050709Y-107414796D01*
X143093500Y-107199670D01*
X143093500Y-106980330D01*
X143050709Y-106765204D01*
X142966771Y-106562560D01*
X142844912Y-106380185D01*
X142689815Y-106225088D01*
X142507440Y-106103229D01*
X142304796Y-106019291D01*
X142089670Y-105976500D01*
X141870330Y-105976500D01*
X141655204Y-106019291D01*
X141452560Y-106103229D01*
X141270185Y-106225088D01*
X141115088Y-106380185D01*
X140993229Y-106562560D01*
X140909291Y-106765204D01*
X140866500Y-106980330D01*
X140553500Y-106980330D01*
X140510709Y-106765204D01*
X140426771Y-106562560D01*
X140304912Y-106380185D01*
X140149815Y-106225088D01*
X139967440Y-106103229D01*
X139764796Y-106019291D01*
X139549670Y-105976500D01*
X139330330Y-105976500D01*
X139115204Y-106019291D01*
X138912560Y-106103229D01*
X138730185Y-106225088D01*
X138575088Y-106380185D01*
X138453229Y-106562560D01*
X138369291Y-106765204D01*
X138326500Y-106980330D01*
X137765500Y-106980330D01*
X137765500Y-104440330D01*
X138326500Y-104440330D01*
X138326500Y-104659670D01*
X138369291Y-104874796D01*
X138453229Y-105077440D01*
X138575088Y-105259815D01*
X138730185Y-105414912D01*
X138912560Y-105536771D01*
X139115204Y-105620709D01*
X139330330Y-105663500D01*
X139549670Y-105663500D01*
X139764796Y-105620709D01*
X139967440Y-105536771D01*
X140149815Y-105414912D01*
X140304912Y-105259815D01*
X140426771Y-105077440D01*
X140510709Y-104874796D01*
X140553500Y-104659670D01*
X140553500Y-104440330D01*
X140866500Y-104440330D01*
X140866500Y-104659670D01*
X140909291Y-104874796D01*
X140993229Y-105077440D01*
X141115088Y-105259815D01*
X141270185Y-105414912D01*
X141452560Y-105536771D01*
X141655204Y-105620709D01*
X141870330Y-105663500D01*
X142089670Y-105663500D01*
X142304796Y-105620709D01*
X142507440Y-105536771D01*
X142689815Y-105414912D01*
X142844912Y-105259815D01*
X142966771Y-105077440D01*
X143050709Y-104874796D01*
X143093500Y-104659670D01*
X143093500Y-104440330D01*
X143050709Y-104225204D01*
X142966771Y-104022560D01*
X142844912Y-103840185D01*
X142689815Y-103685088D01*
X142507440Y-103563229D01*
X142304796Y-103479291D01*
X142089670Y-103436500D01*
X141870330Y-103436500D01*
X141655204Y-103479291D01*
X141452560Y-103563229D01*
X141270185Y-103685088D01*
X141115088Y-103840185D01*
X140993229Y-104022560D01*
X140909291Y-104225204D01*
X140866500Y-104440330D01*
X140553500Y-104440330D01*
X140510709Y-104225204D01*
X140426771Y-104022560D01*
X140304912Y-103840185D01*
X140149815Y-103685088D01*
X139967440Y-103563229D01*
X139764796Y-103479291D01*
X139549670Y-103436500D01*
X139330330Y-103436500D01*
X139115204Y-103479291D01*
X138912560Y-103563229D01*
X138730185Y-103685088D01*
X138575088Y-103840185D01*
X138453229Y-104022560D01*
X138369291Y-104225204D01*
X138326500Y-104440330D01*
X137765500Y-104440330D01*
X137765500Y-101900330D01*
X138326500Y-101900330D01*
X138326500Y-102119670D01*
X138369291Y-102334796D01*
X138453229Y-102537440D01*
X138575088Y-102719815D01*
X138730185Y-102874912D01*
X138912560Y-102996771D01*
X139115204Y-103080709D01*
X139330330Y-103123500D01*
X139549670Y-103123500D01*
X139764796Y-103080709D01*
X139967440Y-102996771D01*
X140149815Y-102874912D01*
X140304912Y-102719815D01*
X140426771Y-102537440D01*
X140510709Y-102334796D01*
X140553500Y-102119670D01*
X140553500Y-101900330D01*
X140866500Y-101900330D01*
X140866500Y-102119670D01*
X140909291Y-102334796D01*
X140993229Y-102537440D01*
X141115088Y-102719815D01*
X141270185Y-102874912D01*
X141452560Y-102996771D01*
X141655204Y-103080709D01*
X141870330Y-103123500D01*
X142089670Y-103123500D01*
X142304796Y-103080709D01*
X142507440Y-102996771D01*
X142689815Y-102874912D01*
X142844912Y-102719815D01*
X142966771Y-102537440D01*
X143050709Y-102334796D01*
X143093500Y-102119670D01*
X143093500Y-101900330D01*
X143050709Y-101685204D01*
X142966771Y-101482560D01*
X142898464Y-101380330D01*
X145686500Y-101380330D01*
X145686500Y-101599670D01*
X145729291Y-101814796D01*
X145813229Y-102017440D01*
X145935088Y-102199815D01*
X146090185Y-102354912D01*
X146272560Y-102476771D01*
X146475204Y-102560709D01*
X146690330Y-102603500D01*
X146909670Y-102603500D01*
X147124796Y-102560709D01*
X147327440Y-102476771D01*
X147509815Y-102354912D01*
X147524727Y-102340000D01*
X148225225Y-102340000D01*
X148230313Y-102391655D01*
X148245380Y-102441325D01*
X148269848Y-102487101D01*
X148302776Y-102527224D01*
X148342899Y-102560152D01*
X148388675Y-102584620D01*
X148438345Y-102599687D01*
X148490000Y-102604775D01*
X149237625Y-102603500D01*
X149303500Y-102537625D01*
X149303500Y-101526500D01*
X149376500Y-101526500D01*
X149376500Y-102537625D01*
X149442375Y-102603500D01*
X150190000Y-102604775D01*
X150241655Y-102599687D01*
X150291325Y-102584620D01*
X150337101Y-102560152D01*
X150377224Y-102527224D01*
X150410152Y-102487101D01*
X150434620Y-102441325D01*
X150449687Y-102391655D01*
X150454775Y-102340000D01*
X150453500Y-101592375D01*
X150387625Y-101526500D01*
X149376500Y-101526500D01*
X149303500Y-101526500D01*
X148292375Y-101526500D01*
X148226500Y-101592375D01*
X148225225Y-102340000D01*
X147524727Y-102340000D01*
X147664912Y-102199815D01*
X147786771Y-102017440D01*
X147870709Y-101814796D01*
X147913500Y-101599670D01*
X147913500Y-101380330D01*
X147870709Y-101165204D01*
X147786771Y-100962560D01*
X147664912Y-100780185D01*
X147524727Y-100640000D01*
X148225225Y-100640000D01*
X148226500Y-101387625D01*
X148292375Y-101453500D01*
X149303500Y-101453500D01*
X149303500Y-100442375D01*
X149376500Y-100442375D01*
X149376500Y-101453500D01*
X150387625Y-101453500D01*
X150453500Y-101387625D01*
X150454775Y-100640000D01*
X150449687Y-100588345D01*
X150434620Y-100538675D01*
X150410152Y-100492899D01*
X150377224Y-100452776D01*
X150337101Y-100419848D01*
X150291325Y-100395380D01*
X150241655Y-100380313D01*
X150190000Y-100375225D01*
X149442375Y-100376500D01*
X149376500Y-100442375D01*
X149303500Y-100442375D01*
X149237625Y-100376500D01*
X148490000Y-100375225D01*
X148438345Y-100380313D01*
X148388675Y-100395380D01*
X148342899Y-100419848D01*
X148302776Y-100452776D01*
X148269848Y-100492899D01*
X148245380Y-100538675D01*
X148230313Y-100588345D01*
X148225225Y-100640000D01*
X147524727Y-100640000D01*
X147509815Y-100625088D01*
X147327440Y-100503229D01*
X147124796Y-100419291D01*
X146909670Y-100376500D01*
X146690330Y-100376500D01*
X146475204Y-100419291D01*
X146272560Y-100503229D01*
X146090185Y-100625088D01*
X145935088Y-100780185D01*
X145813229Y-100962560D01*
X145729291Y-101165204D01*
X145686500Y-101380330D01*
X142898464Y-101380330D01*
X142844912Y-101300185D01*
X142689815Y-101145088D01*
X142507440Y-101023229D01*
X142304796Y-100939291D01*
X142089670Y-100896500D01*
X141870330Y-100896500D01*
X141655204Y-100939291D01*
X141452560Y-101023229D01*
X141270185Y-101145088D01*
X141115088Y-101300185D01*
X140993229Y-101482560D01*
X140909291Y-101685204D01*
X140866500Y-101900330D01*
X140553500Y-101900330D01*
X140510709Y-101685204D01*
X140426771Y-101482560D01*
X140304912Y-101300185D01*
X140149815Y-101145088D01*
X139967440Y-101023229D01*
X139764796Y-100939291D01*
X139549670Y-100896500D01*
X139330330Y-100896500D01*
X139115204Y-100939291D01*
X138912560Y-101023229D01*
X138730185Y-101145088D01*
X138575088Y-101300185D01*
X138453229Y-101482560D01*
X138369291Y-101685204D01*
X138326500Y-101900330D01*
X137765500Y-101900330D01*
X137765500Y-99360330D01*
X138326500Y-99360330D01*
X138326500Y-99579670D01*
X138369291Y-99794796D01*
X138453229Y-99997440D01*
X138575088Y-100179815D01*
X138730185Y-100334912D01*
X138912560Y-100456771D01*
X139115204Y-100540709D01*
X139330330Y-100583500D01*
X139549670Y-100583500D01*
X139764796Y-100540709D01*
X139967440Y-100456771D01*
X140149815Y-100334912D01*
X140304912Y-100179815D01*
X140426771Y-99997440D01*
X140510709Y-99794796D01*
X140553500Y-99579670D01*
X140553500Y-99360330D01*
X140866500Y-99360330D01*
X140866500Y-99579670D01*
X140909291Y-99794796D01*
X140993229Y-99997440D01*
X141115088Y-100179815D01*
X141270185Y-100334912D01*
X141452560Y-100456771D01*
X141655204Y-100540709D01*
X141870330Y-100583500D01*
X142089670Y-100583500D01*
X142304796Y-100540709D01*
X142507440Y-100456771D01*
X142689815Y-100334912D01*
X142844912Y-100179815D01*
X142966771Y-99997440D01*
X143050709Y-99794796D01*
X143093500Y-99579670D01*
X143093500Y-99360330D01*
X143050709Y-99145204D01*
X142966771Y-98942560D01*
X142844912Y-98760185D01*
X142689815Y-98605088D01*
X142507440Y-98483229D01*
X142304796Y-98399291D01*
X142089670Y-98356500D01*
X141870330Y-98356500D01*
X141655204Y-98399291D01*
X141452560Y-98483229D01*
X141270185Y-98605088D01*
X141115088Y-98760185D01*
X140993229Y-98942560D01*
X140909291Y-99145204D01*
X140866500Y-99360330D01*
X140553500Y-99360330D01*
X140510709Y-99145204D01*
X140426771Y-98942560D01*
X140304912Y-98760185D01*
X140149815Y-98605088D01*
X139967440Y-98483229D01*
X139764796Y-98399291D01*
X139549670Y-98356500D01*
X139330330Y-98356500D01*
X139115204Y-98399291D01*
X138912560Y-98483229D01*
X138730185Y-98605088D01*
X138575088Y-98760185D01*
X138453229Y-98942560D01*
X138369291Y-99145204D01*
X138326500Y-99360330D01*
X137765500Y-99360330D01*
X137765500Y-96820330D01*
X138326500Y-96820330D01*
X138326500Y-97039670D01*
X138369291Y-97254796D01*
X138453229Y-97457440D01*
X138575088Y-97639815D01*
X138730185Y-97794912D01*
X138912560Y-97916771D01*
X139115204Y-98000709D01*
X139330330Y-98043500D01*
X139549670Y-98043500D01*
X139764796Y-98000709D01*
X139967440Y-97916771D01*
X140149815Y-97794912D01*
X140304912Y-97639815D01*
X140426771Y-97457440D01*
X140510709Y-97254796D01*
X140553500Y-97039670D01*
X140553500Y-96820330D01*
X140866500Y-96820330D01*
X140866500Y-97039670D01*
X140909291Y-97254796D01*
X140993229Y-97457440D01*
X141115088Y-97639815D01*
X141270185Y-97794912D01*
X141452560Y-97916771D01*
X141655204Y-98000709D01*
X141870330Y-98043500D01*
X142089670Y-98043500D01*
X142304796Y-98000709D01*
X142507440Y-97916771D01*
X142689815Y-97794912D01*
X142844912Y-97639815D01*
X142966771Y-97457440D01*
X143050709Y-97254796D01*
X143093500Y-97039670D01*
X143093500Y-96820330D01*
X143050709Y-96605204D01*
X142966771Y-96402560D01*
X142844912Y-96220185D01*
X142689815Y-96065088D01*
X142507440Y-95943229D01*
X142304796Y-95859291D01*
X142089670Y-95816500D01*
X141870330Y-95816500D01*
X141655204Y-95859291D01*
X141452560Y-95943229D01*
X141270185Y-96065088D01*
X141115088Y-96220185D01*
X140993229Y-96402560D01*
X140909291Y-96605204D01*
X140866500Y-96820330D01*
X140553500Y-96820330D01*
X140510709Y-96605204D01*
X140426771Y-96402560D01*
X140304912Y-96220185D01*
X140149815Y-96065088D01*
X139967440Y-95943229D01*
X139764796Y-95859291D01*
X139549670Y-95816500D01*
X139330330Y-95816500D01*
X139115204Y-95859291D01*
X138912560Y-95943229D01*
X138730185Y-96065088D01*
X138575088Y-96220185D01*
X138453229Y-96402560D01*
X138369291Y-96605204D01*
X138326500Y-96820330D01*
X137765500Y-96820330D01*
X137765500Y-94280330D01*
X138326500Y-94280330D01*
X138326500Y-94499670D01*
X138369291Y-94714796D01*
X138453229Y-94917440D01*
X138575088Y-95099815D01*
X138730185Y-95254912D01*
X138912560Y-95376771D01*
X139115204Y-95460709D01*
X139330330Y-95503500D01*
X139549670Y-95503500D01*
X139764796Y-95460709D01*
X139967440Y-95376771D01*
X140149815Y-95254912D01*
X140304912Y-95099815D01*
X140426771Y-94917440D01*
X140510709Y-94714796D01*
X140553500Y-94499670D01*
X140553500Y-94280330D01*
X140866500Y-94280330D01*
X140866500Y-94499670D01*
X140909291Y-94714796D01*
X140993229Y-94917440D01*
X141115088Y-95099815D01*
X141270185Y-95254912D01*
X141452560Y-95376771D01*
X141655204Y-95460709D01*
X141870330Y-95503500D01*
X142089670Y-95503500D01*
X142304796Y-95460709D01*
X142507440Y-95376771D01*
X142689815Y-95254912D01*
X142844912Y-95099815D01*
X142966771Y-94917440D01*
X143050709Y-94714796D01*
X143093500Y-94499670D01*
X143093500Y-94280330D01*
X143050709Y-94065204D01*
X142966771Y-93862560D01*
X142844912Y-93680185D01*
X142689815Y-93525088D01*
X142507440Y-93403229D01*
X142304796Y-93319291D01*
X142089670Y-93276500D01*
X141870330Y-93276500D01*
X141655204Y-93319291D01*
X141452560Y-93403229D01*
X141270185Y-93525088D01*
X141115088Y-93680185D01*
X140993229Y-93862560D01*
X140909291Y-94065204D01*
X140866500Y-94280330D01*
X140553500Y-94280330D01*
X140510709Y-94065204D01*
X140426771Y-93862560D01*
X140304912Y-93680185D01*
X140149815Y-93525088D01*
X139967440Y-93403229D01*
X139764796Y-93319291D01*
X139549670Y-93276500D01*
X139330330Y-93276500D01*
X139115204Y-93319291D01*
X138912560Y-93403229D01*
X138730185Y-93525088D01*
X138575088Y-93680185D01*
X138453229Y-93862560D01*
X138369291Y-94065204D01*
X138326500Y-94280330D01*
X137765500Y-94280330D01*
X137765500Y-91740330D01*
X138326500Y-91740330D01*
X138326500Y-91959670D01*
X138369291Y-92174796D01*
X138453229Y-92377440D01*
X138575088Y-92559815D01*
X138730185Y-92714912D01*
X138912560Y-92836771D01*
X139115204Y-92920709D01*
X139330330Y-92963500D01*
X139549670Y-92963500D01*
X139764796Y-92920709D01*
X139967440Y-92836771D01*
X140149815Y-92714912D01*
X140304912Y-92559815D01*
X140426771Y-92377440D01*
X140510709Y-92174796D01*
X140553500Y-91959670D01*
X140553500Y-91740330D01*
X140866500Y-91740330D01*
X140866500Y-91959670D01*
X140909291Y-92174796D01*
X140993229Y-92377440D01*
X141115088Y-92559815D01*
X141270185Y-92714912D01*
X141452560Y-92836771D01*
X141655204Y-92920709D01*
X141870330Y-92963500D01*
X142089670Y-92963500D01*
X142304796Y-92920709D01*
X142507440Y-92836771D01*
X142689815Y-92714912D01*
X142844912Y-92559815D01*
X142966771Y-92377440D01*
X143050709Y-92174796D01*
X143093500Y-91959670D01*
X143093500Y-91740330D01*
X143050709Y-91525204D01*
X142966771Y-91322560D01*
X142844912Y-91140185D01*
X142689815Y-90985088D01*
X142507440Y-90863229D01*
X142304796Y-90779291D01*
X142089670Y-90736500D01*
X141870330Y-90736500D01*
X141655204Y-90779291D01*
X141452560Y-90863229D01*
X141270185Y-90985088D01*
X141115088Y-91140185D01*
X140993229Y-91322560D01*
X140909291Y-91525204D01*
X140866500Y-91740330D01*
X140553500Y-91740330D01*
X140510709Y-91525204D01*
X140426771Y-91322560D01*
X140304912Y-91140185D01*
X140149815Y-90985088D01*
X139967440Y-90863229D01*
X139764796Y-90779291D01*
X139549670Y-90736500D01*
X139330330Y-90736500D01*
X139115204Y-90779291D01*
X138912560Y-90863229D01*
X138730185Y-90985088D01*
X138575088Y-91140185D01*
X138453229Y-91322560D01*
X138369291Y-91525204D01*
X138326500Y-91740330D01*
X137765500Y-91740330D01*
X137765500Y-89200330D01*
X138326500Y-89200330D01*
X138326500Y-89419670D01*
X138369291Y-89634796D01*
X138453229Y-89837440D01*
X138575088Y-90019815D01*
X138730185Y-90174912D01*
X138912560Y-90296771D01*
X139115204Y-90380709D01*
X139330330Y-90423500D01*
X139549670Y-90423500D01*
X139764796Y-90380709D01*
X139967440Y-90296771D01*
X140149815Y-90174912D01*
X140304912Y-90019815D01*
X140426771Y-89837440D01*
X140510709Y-89634796D01*
X140553500Y-89419670D01*
X140553500Y-89200330D01*
X140866500Y-89200330D01*
X140866500Y-89419670D01*
X140909291Y-89634796D01*
X140993229Y-89837440D01*
X141115088Y-90019815D01*
X141270185Y-90174912D01*
X141452560Y-90296771D01*
X141655204Y-90380709D01*
X141870330Y-90423500D01*
X142089670Y-90423500D01*
X142304796Y-90380709D01*
X142507440Y-90296771D01*
X142689815Y-90174912D01*
X142844912Y-90019815D01*
X142966771Y-89837440D01*
X143050709Y-89634796D01*
X143093500Y-89419670D01*
X143093500Y-89200330D01*
X143050709Y-88985204D01*
X142966771Y-88782560D01*
X142844912Y-88600185D01*
X142689815Y-88445088D01*
X142507440Y-88323229D01*
X142304796Y-88239291D01*
X142089670Y-88196500D01*
X141870330Y-88196500D01*
X141655204Y-88239291D01*
X141452560Y-88323229D01*
X141270185Y-88445088D01*
X141115088Y-88600185D01*
X140993229Y-88782560D01*
X140909291Y-88985204D01*
X140866500Y-89200330D01*
X140553500Y-89200330D01*
X140510709Y-88985204D01*
X140426771Y-88782560D01*
X140304912Y-88600185D01*
X140149815Y-88445088D01*
X139967440Y-88323229D01*
X139764796Y-88239291D01*
X139549670Y-88196500D01*
X139330330Y-88196500D01*
X139115204Y-88239291D01*
X138912560Y-88323229D01*
X138730185Y-88445088D01*
X138575088Y-88600185D01*
X138453229Y-88782560D01*
X138369291Y-88985204D01*
X138326500Y-89200330D01*
X137765500Y-89200330D01*
X137765500Y-86660330D01*
X138326500Y-86660330D01*
X138326500Y-86879670D01*
X138369291Y-87094796D01*
X138453229Y-87297440D01*
X138575088Y-87479815D01*
X138730185Y-87634912D01*
X138912560Y-87756771D01*
X139115204Y-87840709D01*
X139330330Y-87883500D01*
X139549670Y-87883500D01*
X139764796Y-87840709D01*
X139967440Y-87756771D01*
X140149815Y-87634912D01*
X140164727Y-87620000D01*
X140865225Y-87620000D01*
X140870313Y-87671655D01*
X140885380Y-87721325D01*
X140909848Y-87767101D01*
X140942776Y-87807224D01*
X140982899Y-87840152D01*
X141028675Y-87864620D01*
X141078345Y-87879687D01*
X141130000Y-87884775D01*
X141877625Y-87883500D01*
X141943500Y-87817625D01*
X141943500Y-86806500D01*
X142016500Y-86806500D01*
X142016500Y-87817625D01*
X142082375Y-87883500D01*
X142830000Y-87884775D01*
X142881655Y-87879687D01*
X142931325Y-87864620D01*
X142977101Y-87840152D01*
X143017224Y-87807224D01*
X143050152Y-87767101D01*
X143074620Y-87721325D01*
X143089687Y-87671655D01*
X143094775Y-87620000D01*
X143093500Y-86872375D01*
X143027625Y-86806500D01*
X142016500Y-86806500D01*
X141943500Y-86806500D01*
X140932375Y-86806500D01*
X140866500Y-86872375D01*
X140865225Y-87620000D01*
X140164727Y-87620000D01*
X140304912Y-87479815D01*
X140426771Y-87297440D01*
X140510709Y-87094796D01*
X140553500Y-86879670D01*
X140553500Y-86660330D01*
X140510709Y-86445204D01*
X140426771Y-86242560D01*
X140304912Y-86060185D01*
X140164727Y-85920000D01*
X140865225Y-85920000D01*
X140866500Y-86667625D01*
X140932375Y-86733500D01*
X141943500Y-86733500D01*
X141943500Y-85722375D01*
X142016500Y-85722375D01*
X142016500Y-86733500D01*
X143027625Y-86733500D01*
X143093500Y-86667625D01*
X143094775Y-85920000D01*
X143089687Y-85868345D01*
X143074620Y-85818675D01*
X143050152Y-85772899D01*
X143017224Y-85732776D01*
X142977101Y-85699848D01*
X142931325Y-85675380D01*
X142881655Y-85660313D01*
X142830000Y-85655225D01*
X142082375Y-85656500D01*
X142016500Y-85722375D01*
X141943500Y-85722375D01*
X141877625Y-85656500D01*
X141130000Y-85655225D01*
X141078345Y-85660313D01*
X141028675Y-85675380D01*
X140982899Y-85699848D01*
X140942776Y-85732776D01*
X140909848Y-85772899D01*
X140885380Y-85818675D01*
X140870313Y-85868345D01*
X140865225Y-85920000D01*
X140164727Y-85920000D01*
X140149815Y-85905088D01*
X139967440Y-85783229D01*
X139764796Y-85699291D01*
X139549670Y-85656500D01*
X139330330Y-85656500D01*
X139115204Y-85699291D01*
X138912560Y-85783229D01*
X138730185Y-85905088D01*
X138575088Y-86060185D01*
X138453229Y-86242560D01*
X138369291Y-86445204D01*
X138326500Y-86660330D01*
X137765500Y-86660330D01*
X137765500Y-85575500D01*
X143060738Y-85575500D01*
X151484500Y-93999263D01*
M02*
