G04 #@! TF.GenerationSoftware,KiCad,Pcbnew,5.1.5-1.fc31*
G04 #@! TF.CreationDate,2020-02-21T11:33:52+00:00*
G04 #@! TF.ProjectId,programmer-adapter,70726f67-7261-46d6-9d65-722d61646170,rev?*
G04 #@! TF.SameCoordinates,Original*
G04 #@! TF.FileFunction,Soldermask,Bot*
G04 #@! TF.FilePolarity,Negative*
%FSLAX46Y46*%
G04 Gerber Fmt 4.6, Leading zero omitted, Abs format (unit mm)*
G04 Created by KiCad (PCBNEW 5.1.5-1.fc31) date 2020-02-21 11:33:52*
%MOMM*%
%LPD*%
G04 APERTURE LIST*
%ADD10C,0.100000*%
G04 APERTURE END LIST*
D10*
G36*
X142093512Y-108733927D02*
G01*
X142242812Y-108763624D01*
X142406784Y-108831544D01*
X142554354Y-108930147D01*
X142679853Y-109055646D01*
X142778456Y-109203216D01*
X142846376Y-109367188D01*
X142881000Y-109541259D01*
X142881000Y-109718741D01*
X142846376Y-109892812D01*
X142778456Y-110056784D01*
X142679853Y-110204354D01*
X142554354Y-110329853D01*
X142406784Y-110428456D01*
X142242812Y-110496376D01*
X142093512Y-110526073D01*
X142068742Y-110531000D01*
X141891258Y-110531000D01*
X141866488Y-110526073D01*
X141717188Y-110496376D01*
X141553216Y-110428456D01*
X141405646Y-110329853D01*
X141280147Y-110204354D01*
X141181544Y-110056784D01*
X141113624Y-109892812D01*
X141079000Y-109718741D01*
X141079000Y-109541259D01*
X141113624Y-109367188D01*
X141181544Y-109203216D01*
X141280147Y-109055646D01*
X141405646Y-108930147D01*
X141553216Y-108831544D01*
X141717188Y-108763624D01*
X141866488Y-108733927D01*
X141891258Y-108729000D01*
X142068742Y-108729000D01*
X142093512Y-108733927D01*
G37*
G36*
X139553512Y-108733927D02*
G01*
X139702812Y-108763624D01*
X139866784Y-108831544D01*
X140014354Y-108930147D01*
X140139853Y-109055646D01*
X140238456Y-109203216D01*
X140306376Y-109367188D01*
X140341000Y-109541259D01*
X140341000Y-109718741D01*
X140306376Y-109892812D01*
X140238456Y-110056784D01*
X140139853Y-110204354D01*
X140014354Y-110329853D01*
X139866784Y-110428456D01*
X139702812Y-110496376D01*
X139553512Y-110526073D01*
X139528742Y-110531000D01*
X139351258Y-110531000D01*
X139326488Y-110526073D01*
X139177188Y-110496376D01*
X139013216Y-110428456D01*
X138865646Y-110329853D01*
X138740147Y-110204354D01*
X138641544Y-110056784D01*
X138573624Y-109892812D01*
X138539000Y-109718741D01*
X138539000Y-109541259D01*
X138573624Y-109367188D01*
X138641544Y-109203216D01*
X138740147Y-109055646D01*
X138865646Y-108930147D01*
X139013216Y-108831544D01*
X139177188Y-108763624D01*
X139326488Y-108733927D01*
X139351258Y-108729000D01*
X139528742Y-108729000D01*
X139553512Y-108733927D01*
G37*
G36*
X139553512Y-106193927D02*
G01*
X139702812Y-106223624D01*
X139866784Y-106291544D01*
X140014354Y-106390147D01*
X140139853Y-106515646D01*
X140238456Y-106663216D01*
X140306376Y-106827188D01*
X140341000Y-107001259D01*
X140341000Y-107178741D01*
X140306376Y-107352812D01*
X140238456Y-107516784D01*
X140139853Y-107664354D01*
X140014354Y-107789853D01*
X139866784Y-107888456D01*
X139702812Y-107956376D01*
X139553512Y-107986073D01*
X139528742Y-107991000D01*
X139351258Y-107991000D01*
X139326488Y-107986073D01*
X139177188Y-107956376D01*
X139013216Y-107888456D01*
X138865646Y-107789853D01*
X138740147Y-107664354D01*
X138641544Y-107516784D01*
X138573624Y-107352812D01*
X138539000Y-107178741D01*
X138539000Y-107001259D01*
X138573624Y-106827188D01*
X138641544Y-106663216D01*
X138740147Y-106515646D01*
X138865646Y-106390147D01*
X139013216Y-106291544D01*
X139177188Y-106223624D01*
X139326488Y-106193927D01*
X139351258Y-106189000D01*
X139528742Y-106189000D01*
X139553512Y-106193927D01*
G37*
G36*
X142093512Y-106193927D02*
G01*
X142242812Y-106223624D01*
X142406784Y-106291544D01*
X142554354Y-106390147D01*
X142679853Y-106515646D01*
X142778456Y-106663216D01*
X142846376Y-106827188D01*
X142881000Y-107001259D01*
X142881000Y-107178741D01*
X142846376Y-107352812D01*
X142778456Y-107516784D01*
X142679853Y-107664354D01*
X142554354Y-107789853D01*
X142406784Y-107888456D01*
X142242812Y-107956376D01*
X142093512Y-107986073D01*
X142068742Y-107991000D01*
X141891258Y-107991000D01*
X141866488Y-107986073D01*
X141717188Y-107956376D01*
X141553216Y-107888456D01*
X141405646Y-107789853D01*
X141280147Y-107664354D01*
X141181544Y-107516784D01*
X141113624Y-107352812D01*
X141079000Y-107178741D01*
X141079000Y-107001259D01*
X141113624Y-106827188D01*
X141181544Y-106663216D01*
X141280147Y-106515646D01*
X141405646Y-106390147D01*
X141553216Y-106291544D01*
X141717188Y-106223624D01*
X141866488Y-106193927D01*
X141891258Y-106189000D01*
X142068742Y-106189000D01*
X142093512Y-106193927D01*
G37*
G36*
X142093512Y-103653927D02*
G01*
X142242812Y-103683624D01*
X142406784Y-103751544D01*
X142554354Y-103850147D01*
X142679853Y-103975646D01*
X142778456Y-104123216D01*
X142846376Y-104287188D01*
X142881000Y-104461259D01*
X142881000Y-104638741D01*
X142846376Y-104812812D01*
X142778456Y-104976784D01*
X142679853Y-105124354D01*
X142554354Y-105249853D01*
X142406784Y-105348456D01*
X142242812Y-105416376D01*
X142093512Y-105446073D01*
X142068742Y-105451000D01*
X141891258Y-105451000D01*
X141866488Y-105446073D01*
X141717188Y-105416376D01*
X141553216Y-105348456D01*
X141405646Y-105249853D01*
X141280147Y-105124354D01*
X141181544Y-104976784D01*
X141113624Y-104812812D01*
X141079000Y-104638741D01*
X141079000Y-104461259D01*
X141113624Y-104287188D01*
X141181544Y-104123216D01*
X141280147Y-103975646D01*
X141405646Y-103850147D01*
X141553216Y-103751544D01*
X141717188Y-103683624D01*
X141866488Y-103653927D01*
X141891258Y-103649000D01*
X142068742Y-103649000D01*
X142093512Y-103653927D01*
G37*
G36*
X139553512Y-103653927D02*
G01*
X139702812Y-103683624D01*
X139866784Y-103751544D01*
X140014354Y-103850147D01*
X140139853Y-103975646D01*
X140238456Y-104123216D01*
X140306376Y-104287188D01*
X140341000Y-104461259D01*
X140341000Y-104638741D01*
X140306376Y-104812812D01*
X140238456Y-104976784D01*
X140139853Y-105124354D01*
X140014354Y-105249853D01*
X139866784Y-105348456D01*
X139702812Y-105416376D01*
X139553512Y-105446073D01*
X139528742Y-105451000D01*
X139351258Y-105451000D01*
X139326488Y-105446073D01*
X139177188Y-105416376D01*
X139013216Y-105348456D01*
X138865646Y-105249853D01*
X138740147Y-105124354D01*
X138641544Y-104976784D01*
X138573624Y-104812812D01*
X138539000Y-104638741D01*
X138539000Y-104461259D01*
X138573624Y-104287188D01*
X138641544Y-104123216D01*
X138740147Y-103975646D01*
X138865646Y-103850147D01*
X139013216Y-103751544D01*
X139177188Y-103683624D01*
X139326488Y-103653927D01*
X139351258Y-103649000D01*
X139528742Y-103649000D01*
X139553512Y-103653927D01*
G37*
G36*
X142093512Y-101113927D02*
G01*
X142242812Y-101143624D01*
X142406784Y-101211544D01*
X142554354Y-101310147D01*
X142679853Y-101435646D01*
X142778456Y-101583216D01*
X142846376Y-101747188D01*
X142876073Y-101896488D01*
X142880110Y-101916782D01*
X142881000Y-101921259D01*
X142881000Y-102098741D01*
X142846376Y-102272812D01*
X142778456Y-102436784D01*
X142679853Y-102584354D01*
X142554354Y-102709853D01*
X142406784Y-102808456D01*
X142242812Y-102876376D01*
X142093512Y-102906073D01*
X142068742Y-102911000D01*
X141891258Y-102911000D01*
X141866488Y-102906073D01*
X141717188Y-102876376D01*
X141553216Y-102808456D01*
X141405646Y-102709853D01*
X141280147Y-102584354D01*
X141181544Y-102436784D01*
X141113624Y-102272812D01*
X141079000Y-102098741D01*
X141079000Y-101921259D01*
X141079891Y-101916782D01*
X141083927Y-101896488D01*
X141113624Y-101747188D01*
X141181544Y-101583216D01*
X141280147Y-101435646D01*
X141405646Y-101310147D01*
X141553216Y-101211544D01*
X141717188Y-101143624D01*
X141866488Y-101113927D01*
X141891258Y-101109000D01*
X142068742Y-101109000D01*
X142093512Y-101113927D01*
G37*
G36*
X139553512Y-101113927D02*
G01*
X139702812Y-101143624D01*
X139866784Y-101211544D01*
X140014354Y-101310147D01*
X140139853Y-101435646D01*
X140238456Y-101583216D01*
X140306376Y-101747188D01*
X140336073Y-101896488D01*
X140340110Y-101916782D01*
X140341000Y-101921259D01*
X140341000Y-102098741D01*
X140306376Y-102272812D01*
X140238456Y-102436784D01*
X140139853Y-102584354D01*
X140014354Y-102709853D01*
X139866784Y-102808456D01*
X139702812Y-102876376D01*
X139553512Y-102906073D01*
X139528742Y-102911000D01*
X139351258Y-102911000D01*
X139326488Y-102906073D01*
X139177188Y-102876376D01*
X139013216Y-102808456D01*
X138865646Y-102709853D01*
X138740147Y-102584354D01*
X138641544Y-102436784D01*
X138573624Y-102272812D01*
X138539000Y-102098741D01*
X138539000Y-101921259D01*
X138539891Y-101916782D01*
X138543927Y-101896488D01*
X138573624Y-101747188D01*
X138641544Y-101583216D01*
X138740147Y-101435646D01*
X138865646Y-101310147D01*
X139013216Y-101211544D01*
X139177188Y-101143624D01*
X139326488Y-101113927D01*
X139351258Y-101109000D01*
X139528742Y-101109000D01*
X139553512Y-101113927D01*
G37*
G36*
X150241000Y-102391000D02*
G01*
X148439000Y-102391000D01*
X148439000Y-100589000D01*
X150241000Y-100589000D01*
X150241000Y-102391000D01*
G37*
G36*
X146913512Y-100593927D02*
G01*
X147062812Y-100623624D01*
X147226784Y-100691544D01*
X147374354Y-100790147D01*
X147499853Y-100915646D01*
X147598456Y-101063216D01*
X147666376Y-101227188D01*
X147682877Y-101310147D01*
X147701000Y-101401258D01*
X147701000Y-101578742D01*
X147696073Y-101603512D01*
X147666376Y-101752812D01*
X147598456Y-101916784D01*
X147499853Y-102064354D01*
X147374354Y-102189853D01*
X147226784Y-102288456D01*
X147062812Y-102356376D01*
X146913512Y-102386073D01*
X146888742Y-102391000D01*
X146711258Y-102391000D01*
X146686488Y-102386073D01*
X146537188Y-102356376D01*
X146373216Y-102288456D01*
X146225646Y-102189853D01*
X146100147Y-102064354D01*
X146001544Y-101916784D01*
X145933624Y-101752812D01*
X145903927Y-101603512D01*
X145899000Y-101578742D01*
X145899000Y-101401258D01*
X145917123Y-101310147D01*
X145933624Y-101227188D01*
X146001544Y-101063216D01*
X146100147Y-100915646D01*
X146225646Y-100790147D01*
X146373216Y-100691544D01*
X146537188Y-100623624D01*
X146686488Y-100593927D01*
X146711258Y-100589000D01*
X146888742Y-100589000D01*
X146913512Y-100593927D01*
G37*
G36*
X142093512Y-98573927D02*
G01*
X142242812Y-98603624D01*
X142406784Y-98671544D01*
X142554354Y-98770147D01*
X142679853Y-98895646D01*
X142778456Y-99043216D01*
X142846376Y-99207188D01*
X142881000Y-99381259D01*
X142881000Y-99558741D01*
X142846376Y-99732812D01*
X142778456Y-99896784D01*
X142679853Y-100044354D01*
X142554354Y-100169853D01*
X142406784Y-100268456D01*
X142242812Y-100336376D01*
X142093512Y-100366073D01*
X142068742Y-100371000D01*
X141891258Y-100371000D01*
X141866488Y-100366073D01*
X141717188Y-100336376D01*
X141553216Y-100268456D01*
X141405646Y-100169853D01*
X141280147Y-100044354D01*
X141181544Y-99896784D01*
X141113624Y-99732812D01*
X141079000Y-99558741D01*
X141079000Y-99381259D01*
X141113624Y-99207188D01*
X141181544Y-99043216D01*
X141280147Y-98895646D01*
X141405646Y-98770147D01*
X141553216Y-98671544D01*
X141717188Y-98603624D01*
X141866488Y-98573927D01*
X141891258Y-98569000D01*
X142068742Y-98569000D01*
X142093512Y-98573927D01*
G37*
G36*
X139553512Y-98573927D02*
G01*
X139702812Y-98603624D01*
X139866784Y-98671544D01*
X140014354Y-98770147D01*
X140139853Y-98895646D01*
X140238456Y-99043216D01*
X140306376Y-99207188D01*
X140341000Y-99381259D01*
X140341000Y-99558741D01*
X140306376Y-99732812D01*
X140238456Y-99896784D01*
X140139853Y-100044354D01*
X140014354Y-100169853D01*
X139866784Y-100268456D01*
X139702812Y-100336376D01*
X139553512Y-100366073D01*
X139528742Y-100371000D01*
X139351258Y-100371000D01*
X139326488Y-100366073D01*
X139177188Y-100336376D01*
X139013216Y-100268456D01*
X138865646Y-100169853D01*
X138740147Y-100044354D01*
X138641544Y-99896784D01*
X138573624Y-99732812D01*
X138539000Y-99558741D01*
X138539000Y-99381259D01*
X138573624Y-99207188D01*
X138641544Y-99043216D01*
X138740147Y-98895646D01*
X138865646Y-98770147D01*
X139013216Y-98671544D01*
X139177188Y-98603624D01*
X139326488Y-98573927D01*
X139351258Y-98569000D01*
X139528742Y-98569000D01*
X139553512Y-98573927D01*
G37*
G36*
X139553512Y-96033927D02*
G01*
X139702812Y-96063624D01*
X139866784Y-96131544D01*
X140014354Y-96230147D01*
X140139853Y-96355646D01*
X140238456Y-96503216D01*
X140306376Y-96667188D01*
X140341000Y-96841259D01*
X140341000Y-97018741D01*
X140306376Y-97192812D01*
X140238456Y-97356784D01*
X140139853Y-97504354D01*
X140014354Y-97629853D01*
X139866784Y-97728456D01*
X139702812Y-97796376D01*
X139553512Y-97826073D01*
X139528742Y-97831000D01*
X139351258Y-97831000D01*
X139326488Y-97826073D01*
X139177188Y-97796376D01*
X139013216Y-97728456D01*
X138865646Y-97629853D01*
X138740147Y-97504354D01*
X138641544Y-97356784D01*
X138573624Y-97192812D01*
X138539000Y-97018741D01*
X138539000Y-96841259D01*
X138573624Y-96667188D01*
X138641544Y-96503216D01*
X138740147Y-96355646D01*
X138865646Y-96230147D01*
X139013216Y-96131544D01*
X139177188Y-96063624D01*
X139326488Y-96033927D01*
X139351258Y-96029000D01*
X139528742Y-96029000D01*
X139553512Y-96033927D01*
G37*
G36*
X142093512Y-96033927D02*
G01*
X142242812Y-96063624D01*
X142406784Y-96131544D01*
X142554354Y-96230147D01*
X142679853Y-96355646D01*
X142778456Y-96503216D01*
X142846376Y-96667188D01*
X142881000Y-96841259D01*
X142881000Y-97018741D01*
X142846376Y-97192812D01*
X142778456Y-97356784D01*
X142679853Y-97504354D01*
X142554354Y-97629853D01*
X142406784Y-97728456D01*
X142242812Y-97796376D01*
X142093512Y-97826073D01*
X142068742Y-97831000D01*
X141891258Y-97831000D01*
X141866488Y-97826073D01*
X141717188Y-97796376D01*
X141553216Y-97728456D01*
X141405646Y-97629853D01*
X141280147Y-97504354D01*
X141181544Y-97356784D01*
X141113624Y-97192812D01*
X141079000Y-97018741D01*
X141079000Y-96841259D01*
X141113624Y-96667188D01*
X141181544Y-96503216D01*
X141280147Y-96355646D01*
X141405646Y-96230147D01*
X141553216Y-96131544D01*
X141717188Y-96063624D01*
X141866488Y-96033927D01*
X141891258Y-96029000D01*
X142068742Y-96029000D01*
X142093512Y-96033927D01*
G37*
G36*
X142093512Y-93493927D02*
G01*
X142242812Y-93523624D01*
X142406784Y-93591544D01*
X142554354Y-93690147D01*
X142679853Y-93815646D01*
X142778456Y-93963216D01*
X142846376Y-94127188D01*
X142881000Y-94301259D01*
X142881000Y-94478741D01*
X142846376Y-94652812D01*
X142778456Y-94816784D01*
X142679853Y-94964354D01*
X142554354Y-95089853D01*
X142406784Y-95188456D01*
X142242812Y-95256376D01*
X142093512Y-95286073D01*
X142068742Y-95291000D01*
X141891258Y-95291000D01*
X141866488Y-95286073D01*
X141717188Y-95256376D01*
X141553216Y-95188456D01*
X141405646Y-95089853D01*
X141280147Y-94964354D01*
X141181544Y-94816784D01*
X141113624Y-94652812D01*
X141079000Y-94478741D01*
X141079000Y-94301259D01*
X141113624Y-94127188D01*
X141181544Y-93963216D01*
X141280147Y-93815646D01*
X141405646Y-93690147D01*
X141553216Y-93591544D01*
X141717188Y-93523624D01*
X141866488Y-93493927D01*
X141891258Y-93489000D01*
X142068742Y-93489000D01*
X142093512Y-93493927D01*
G37*
G36*
X139553512Y-93493927D02*
G01*
X139702812Y-93523624D01*
X139866784Y-93591544D01*
X140014354Y-93690147D01*
X140139853Y-93815646D01*
X140238456Y-93963216D01*
X140306376Y-94127188D01*
X140341000Y-94301259D01*
X140341000Y-94478741D01*
X140306376Y-94652812D01*
X140238456Y-94816784D01*
X140139853Y-94964354D01*
X140014354Y-95089853D01*
X139866784Y-95188456D01*
X139702812Y-95256376D01*
X139553512Y-95286073D01*
X139528742Y-95291000D01*
X139351258Y-95291000D01*
X139326488Y-95286073D01*
X139177188Y-95256376D01*
X139013216Y-95188456D01*
X138865646Y-95089853D01*
X138740147Y-94964354D01*
X138641544Y-94816784D01*
X138573624Y-94652812D01*
X138539000Y-94478741D01*
X138539000Y-94301259D01*
X138573624Y-94127188D01*
X138641544Y-93963216D01*
X138740147Y-93815646D01*
X138865646Y-93690147D01*
X139013216Y-93591544D01*
X139177188Y-93523624D01*
X139326488Y-93493927D01*
X139351258Y-93489000D01*
X139528742Y-93489000D01*
X139553512Y-93493927D01*
G37*
G36*
X142093512Y-90953927D02*
G01*
X142242812Y-90983624D01*
X142406784Y-91051544D01*
X142554354Y-91150147D01*
X142679853Y-91275646D01*
X142778456Y-91423216D01*
X142846376Y-91587188D01*
X142881000Y-91761259D01*
X142881000Y-91938741D01*
X142846376Y-92112812D01*
X142778456Y-92276784D01*
X142679853Y-92424354D01*
X142554354Y-92549853D01*
X142406784Y-92648456D01*
X142242812Y-92716376D01*
X142093512Y-92746073D01*
X142068742Y-92751000D01*
X141891258Y-92751000D01*
X141866488Y-92746073D01*
X141717188Y-92716376D01*
X141553216Y-92648456D01*
X141405646Y-92549853D01*
X141280147Y-92424354D01*
X141181544Y-92276784D01*
X141113624Y-92112812D01*
X141079000Y-91938741D01*
X141079000Y-91761259D01*
X141113624Y-91587188D01*
X141181544Y-91423216D01*
X141280147Y-91275646D01*
X141405646Y-91150147D01*
X141553216Y-91051544D01*
X141717188Y-90983624D01*
X141866488Y-90953927D01*
X141891258Y-90949000D01*
X142068742Y-90949000D01*
X142093512Y-90953927D01*
G37*
G36*
X139553512Y-90953927D02*
G01*
X139702812Y-90983624D01*
X139866784Y-91051544D01*
X140014354Y-91150147D01*
X140139853Y-91275646D01*
X140238456Y-91423216D01*
X140306376Y-91587188D01*
X140341000Y-91761259D01*
X140341000Y-91938741D01*
X140306376Y-92112812D01*
X140238456Y-92276784D01*
X140139853Y-92424354D01*
X140014354Y-92549853D01*
X139866784Y-92648456D01*
X139702812Y-92716376D01*
X139553512Y-92746073D01*
X139528742Y-92751000D01*
X139351258Y-92751000D01*
X139326488Y-92746073D01*
X139177188Y-92716376D01*
X139013216Y-92648456D01*
X138865646Y-92549853D01*
X138740147Y-92424354D01*
X138641544Y-92276784D01*
X138573624Y-92112812D01*
X138539000Y-91938741D01*
X138539000Y-91761259D01*
X138573624Y-91587188D01*
X138641544Y-91423216D01*
X138740147Y-91275646D01*
X138865646Y-91150147D01*
X139013216Y-91051544D01*
X139177188Y-90983624D01*
X139326488Y-90953927D01*
X139351258Y-90949000D01*
X139528742Y-90949000D01*
X139553512Y-90953927D01*
G37*
G36*
X142093512Y-88413927D02*
G01*
X142242812Y-88443624D01*
X142406784Y-88511544D01*
X142554354Y-88610147D01*
X142679853Y-88735646D01*
X142778456Y-88883216D01*
X142846376Y-89047188D01*
X142881000Y-89221259D01*
X142881000Y-89398741D01*
X142846376Y-89572812D01*
X142778456Y-89736784D01*
X142679853Y-89884354D01*
X142554354Y-90009853D01*
X142406784Y-90108456D01*
X142242812Y-90176376D01*
X142093512Y-90206073D01*
X142068742Y-90211000D01*
X141891258Y-90211000D01*
X141866488Y-90206073D01*
X141717188Y-90176376D01*
X141553216Y-90108456D01*
X141405646Y-90009853D01*
X141280147Y-89884354D01*
X141181544Y-89736784D01*
X141113624Y-89572812D01*
X141079000Y-89398741D01*
X141079000Y-89221259D01*
X141113624Y-89047188D01*
X141181544Y-88883216D01*
X141280147Y-88735646D01*
X141405646Y-88610147D01*
X141553216Y-88511544D01*
X141717188Y-88443624D01*
X141866488Y-88413927D01*
X141891258Y-88409000D01*
X142068742Y-88409000D01*
X142093512Y-88413927D01*
G37*
G36*
X139553512Y-88413927D02*
G01*
X139702812Y-88443624D01*
X139866784Y-88511544D01*
X140014354Y-88610147D01*
X140139853Y-88735646D01*
X140238456Y-88883216D01*
X140306376Y-89047188D01*
X140341000Y-89221259D01*
X140341000Y-89398741D01*
X140306376Y-89572812D01*
X140238456Y-89736784D01*
X140139853Y-89884354D01*
X140014354Y-90009853D01*
X139866784Y-90108456D01*
X139702812Y-90176376D01*
X139553512Y-90206073D01*
X139528742Y-90211000D01*
X139351258Y-90211000D01*
X139326488Y-90206073D01*
X139177188Y-90176376D01*
X139013216Y-90108456D01*
X138865646Y-90009853D01*
X138740147Y-89884354D01*
X138641544Y-89736784D01*
X138573624Y-89572812D01*
X138539000Y-89398741D01*
X138539000Y-89221259D01*
X138573624Y-89047188D01*
X138641544Y-88883216D01*
X138740147Y-88735646D01*
X138865646Y-88610147D01*
X139013216Y-88511544D01*
X139177188Y-88443624D01*
X139326488Y-88413927D01*
X139351258Y-88409000D01*
X139528742Y-88409000D01*
X139553512Y-88413927D01*
G37*
G36*
X142881000Y-87671000D02*
G01*
X141079000Y-87671000D01*
X141079000Y-85869000D01*
X142881000Y-85869000D01*
X142881000Y-87671000D01*
G37*
G36*
X139553512Y-85873927D02*
G01*
X139702812Y-85903624D01*
X139866784Y-85971544D01*
X140014354Y-86070147D01*
X140139853Y-86195646D01*
X140238456Y-86343216D01*
X140306376Y-86507188D01*
X140341000Y-86681259D01*
X140341000Y-86858741D01*
X140306376Y-87032812D01*
X140238456Y-87196784D01*
X140139853Y-87344354D01*
X140014354Y-87469853D01*
X139866784Y-87568456D01*
X139702812Y-87636376D01*
X139553512Y-87666073D01*
X139528742Y-87671000D01*
X139351258Y-87671000D01*
X139326488Y-87666073D01*
X139177188Y-87636376D01*
X139013216Y-87568456D01*
X138865646Y-87469853D01*
X138740147Y-87344354D01*
X138641544Y-87196784D01*
X138573624Y-87032812D01*
X138539000Y-86858741D01*
X138539000Y-86681259D01*
X138573624Y-86507188D01*
X138641544Y-86343216D01*
X138740147Y-86195646D01*
X138865646Y-86070147D01*
X139013216Y-85971544D01*
X139177188Y-85903624D01*
X139326488Y-85873927D01*
X139351258Y-85869000D01*
X139528742Y-85869000D01*
X139553512Y-85873927D01*
G37*
M02*
